<svg width="30" height="30" viewBox="0 0 30 30" fill="none" xmlns="http://www.w3.org/2000/svg">
<path d="M15 27.5C16.6418 27.502 18.2679 27.1796 19.7847 26.5513C21.3015 25.923 22.6793 25.0012 23.8388 23.8388C25.0012 22.6793 25.923 21.3015 26.5513 19.7847C27.1796 18.2679 27.502 16.6418 27.5 15C27.502 13.3582 27.1796 11.7322 26.5513 10.2153C25.923 8.69848 25.0012 7.32074 23.8388 6.16126C22.6793 4.99886 21.3015 4.07702 19.7847 3.44871C18.2679 2.82039 16.6418 2.49798 15 2.50001C13.3582 2.49798 11.7322 2.82039 10.2153 3.44871C8.69848 4.07702 7.32074 4.99886 6.16126 6.16126C4.99886 7.32074 4.07702 8.69848 3.44871 10.2153C2.82039 11.7322 2.49798 13.3582 2.50001 15C2.49798 16.6418 2.82039 18.2679 3.44871 19.7847C4.07702 21.3015 4.99886 22.6793 6.16126 23.8388C7.32074 25.0012 8.69848 25.923 10.2153 26.5513C11.7322 27.1796 13.3582 27.502 15 27.5Z" stroke="#C1C6D5" stroke-width="2" stroke-linejoin="round"/>
<path fill-rule="evenodd" clip-rule="evenodd" d="M15 23.125C15.4144 23.125 15.8118 22.9604 16.1049 22.6674C16.3979 22.3743 16.5625 21.9769 16.5625 21.5625C16.5625 21.1481 16.3979 20.7507 16.1049 20.4576C15.8118 20.1646 15.4144 20 15 20C14.5856 20 14.1882 20.1646 13.8951 20.4576C13.6021 20.7507 13.4375 21.1481 13.4375 21.5625C13.4375 21.9769 13.6021 22.3743 13.8951 22.6674C14.1882 22.9604 14.5856 23.125 15 23.125Z" fill="#C1C6D5"/>
<path d="M15 7.5V17.5" stroke="#C1C6D5" stroke-width="2" stroke-linecap="round" stroke-linejoin="round"/>
</svg>
