<svg width="30" height="30" viewBox="0 0 30 30" fill="none" xmlns="http://www.w3.org/2000/svg">
<path d="M6.25 6.25H22.5C23.4946 6.25 24.4484 6.64509 25.1516 7.34835C25.8549 8.05161 26.25 9.00544 26.25 10V21.25C26.25 22.2446 25.8549 23.1984 25.1516 23.9017C24.4484 24.6049 23.4946 25 22.5 25H6.25C5.25544 25 4.30161 24.6049 3.59835 23.9017C2.89509 23.1984 2.5 22.2446 2.5 21.25V10C2.5 9.00544 2.89509 8.05161 3.59835 7.34835C4.30161 6.64509 5.25544 6.25 6.25 6.25ZM6.25 7.5C5.58696 7.5 4.95107 7.76339 4.48223 8.23223C4.01339 8.70107 3.75 9.33696 3.75 10V11.25H25V10C25 9.33696 24.7366 8.70107 24.2678 8.23223C23.7989 7.76339 23.163 7.5 22.5 7.5H6.25ZM3.75 21.25C3.75 21.913 4.01339 22.5489 4.48223 23.0178C4.95107 23.4866 5.58696 23.75 6.25 23.75H22.5C23.163 23.75 23.7989 23.4866 24.2678 23.0178C24.7366 22.5489 25 21.913 25 21.25V15H3.75V21.25ZM6.25 20H11.25V21.25H6.25V20ZM13.75 20H17.5V21.25H13.75V20ZM3.75 12.5V13.75H25V12.5H3.75Z" fill="#CACACA"/>
</svg>
