<svg width="40" height="40" viewBox="0 0 40 40" fill="none" xmlns="http://www.w3.org/2000/svg">
<path fill-rule="evenodd" clip-rule="evenodd" d="M11.6667 10C11.6667 9.11597 12.0179 8.26812 12.643 7.643C13.2681 7.01788 14.116 6.66669 15 6.66669H33.3333C34.2174 6.66669 35.0652 7.01788 35.6904 7.643C36.3155 8.26812 36.6667 9.11597 36.6667 10V21.6667C36.6667 22.5507 36.3155 23.3986 35.6904 24.0237C35.0652 24.6488 34.2174 25 33.3333 25H30V18.3334C30 17.0073 29.4732 15.7355 28.5355 14.7978C27.5979 13.8601 26.3261 13.3334 25 13.3334H11.6667V10Z" fill="#A8A3D7"/>
<path fill-rule="evenodd" clip-rule="evenodd" d="M3.33334 18.3333C3.33334 17.4493 3.68453 16.6014 4.30965 15.9763C4.93477 15.3512 5.78261 15 6.66667 15H25C25.8841 15 26.7319 15.3512 27.357 15.9763C27.9821 16.6014 28.3333 17.4493 28.3333 18.3333V30C28.3333 30.8841 27.9821 31.7319 27.357 32.357C26.7319 32.9821 25.8841 33.3333 25 33.3333H6.66667C5.78261 33.3333 4.93477 32.9821 4.30965 32.357C3.68453 31.7319 3.33334 30.8841 3.33334 30V18.3333ZM15.8333 20C14.7283 20 13.6685 20.439 12.8871 21.2204C12.1057 22.0018 11.6667 23.0616 11.6667 24.1667C11.6667 25.2717 12.1057 26.3315 12.8871 27.1129C13.6685 27.8943 14.7283 28.3333 15.8333 28.3333C16.9384 28.3333 17.9982 27.8943 18.7796 27.1129C19.561 26.3315 20 25.2717 20 24.1667C20 23.0616 19.561 22.0018 18.7796 21.2204C17.9982 20.439 16.9384 20 15.8333 20Z" fill="#A8A3D7"/>
<path d="M17.5 24.1667C17.5 24.6087 17.3244 25.0326 17.0118 25.3452C16.6993 25.6577 16.2754 25.8333 15.8333 25.8333C15.3913 25.8333 14.9674 25.6577 14.6548 25.3452C14.3423 25.0326 14.1667 24.6087 14.1667 24.1667C14.1667 23.7246 14.3423 23.3007 14.6548 22.9882C14.9674 22.6756 15.3913 22.5 15.8333 22.5C16.2754 22.5 16.6993 22.6756 17.0118 22.9882C17.3244 23.3007 17.5 23.7246 17.5 24.1667Z" fill="#A8A3D7"/>
</svg>
