<svg width="40" height="40" viewBox="0 0 40 40" fill="none" xmlns="http://www.w3.org/2000/svg">
<path d="M1.61857 12.6671H38.3814V11.11C38.3814 7.66214 36.6243 5.92072 33.125 5.92072H6.875C3.37643 5.92072 1.61786 7.66214 1.61786 11.1107L1.61857 12.6671ZM1.61857 28.9064C1.61857 32.355 3.37571 34.0793 6.875 34.0793H33.125C36.6236 34.0793 38.3821 32.355 38.3821 28.9064V16.4679H1.61714L1.61857 28.9064ZM7.21 24.8214V21.7243C7.21 20.7871 7.86286 20.1171 8.85071 20.1171H12.9521C13.94 20.1171 14.5929 20.7871 14.5929 21.7243V24.8214C14.5929 25.7757 13.94 26.4286 12.9521 26.4286H8.85C7.86214 26.4286 7.21 25.7757 7.21 24.8214Z" fill="#A8A3D7"/>
</svg>
