<svg width="38" height="46" viewBox="0 0 38 46" fill="none" xmlns="http://www.w3.org/2000/svg">
<g filter="url(#filter0_d_1011_23905)">
<path d="M33.25 30.0391V36.5C33.25 36.8315 33.1183 37.1495 32.8839 37.3839C32.6495 37.6183 32.3315 37.75 32 37.75C31.6685 37.75 31.3505 37.6183 31.1161 37.3839C30.8817 37.1495 30.75 36.8315 30.75 36.5V30.0391C30.7442 28.4346 30.4082 26.8486 29.7631 25.3795C29.118 23.9105 28.1774 22.5899 27 21.5V30.6172C26.9998 30.8862 26.9128 31.148 26.7519 31.3636C26.5911 31.5792 26.365 31.7372 26.1072 31.814C25.8494 31.8909 25.5737 31.8825 25.321 31.7902C25.0683 31.6979 24.8522 31.5265 24.7047 31.3016L23.0359 28.7531C23.0234 28.7344 23.0109 28.7141 23 28.6938C22.7549 28.2609 22.3479 27.9432 21.8685 27.8104C21.3891 27.6777 20.8766 27.7408 20.4437 27.9859C20.0109 28.2311 19.6932 28.6381 19.5604 29.1175C19.4277 29.5969 19.4908 30.1094 19.7359 30.5422L23.1937 35.8219C23.3753 36.0993 23.4391 36.4375 23.3713 36.762C23.3034 37.0866 23.1095 37.3708 22.832 37.5524C22.5546 37.7339 22.2164 37.7977 21.8919 37.7299C21.5674 37.662 21.2831 37.4681 21.1016 37.1906L17.6234 31.8781L17.5859 31.8188C17.5266 31.7156 17.4719 31.6109 17.4219 31.5063H5.75C5.41848 31.5063 5.10054 31.3746 4.86612 31.1401C4.6317 30.9057 4.5 30.5878 4.5 30.2563V14C4.5 13.337 4.76339 12.7011 5.23223 12.2322C5.70107 11.7634 6.33696 11.5 7 11.5H14.5V19C14.5 19.3315 14.6317 19.6495 14.8661 19.8839C15.1005 20.1183 15.4185 20.25 15.75 20.25C16.0815 20.25 16.3995 20.1183 16.6339 19.8839C16.8683 19.6495 17 19.3315 17 19V11.5H24.5C25.163 11.5 25.7989 11.7634 26.2678 12.2322C26.7366 12.7011 27 13.337 27 14V18.3156C28.9186 19.6121 30.4911 21.3581 31.5804 23.4014C32.6697 25.4448 33.2429 27.7235 33.25 30.0391ZM17 4.5172L19.8656 7.38438C20.1002 7.61893 20.4183 7.7507 20.75 7.7507C21.0817 7.7507 21.3998 7.61893 21.6344 7.38438C21.8689 7.14983 22.0007 6.83171 22.0007 6.50001C22.0007 6.1683 21.8689 5.85018 21.6344 5.61563L16.6344 0.615632C16.5183 0.499411 16.3804 0.407213 16.2287 0.344307C16.0769 0.281402 15.9143 0.249023 15.75 0.249023C15.5857 0.249023 15.4231 0.281402 15.2713 0.344307C15.1196 0.407213 14.9817 0.499411 14.8656 0.615632L9.86562 5.61563C9.63107 5.85018 9.49931 6.1683 9.49931 6.50001C9.49931 6.83171 9.63107 7.14983 9.86562 7.38438C10.1002 7.61893 10.4183 7.7507 10.75 7.7507C11.0817 7.7507 11.3998 7.61893 11.6344 7.38438L14.5 4.5172V11.5H17V4.5172Z" fill="#A8A3D7"/>
</g>
<defs>
<filter id="filter0_d_1011_23905" x="0.5" y="0.249023" width="36.75" height="45.5073" filterUnits="userSpaceOnUse" color-interpolation-filters="sRGB">
<feFlood flood-opacity="0" result="BackgroundImageFix"/>
<feColorMatrix in="SourceAlpha" type="matrix" values="0 0 0 0 0 0 0 0 0 0 0 0 0 0 0 0 0 0 127 0" result="hardAlpha"/>
<feOffset dy="4"/>
<feGaussianBlur stdDeviation="2"/>
<feComposite in2="hardAlpha" operator="out"/>
<feColorMatrix type="matrix" values="0 0 0 0 0 0 0 0 0 0 0 0 0 0 0 0 0 0 0.25 0"/>
<feBlend mode="normal" in2="BackgroundImageFix" result="effect1_dropShadow_1011_23905"/>
<feBlend mode="normal" in="SourceGraphic" in2="effect1_dropShadow_1011_23905" result="shape"/>
</filter>
</defs>
</svg>
