<svg width="30" height="30" viewBox="0 0 30 30" fill="none" xmlns="http://www.w3.org/2000/svg">
<path fill-rule="evenodd" clip-rule="evenodd" d="M14.9442 4.38816C14.9441 4.38819 14.9442 4.38813 14.9442 4.38816L2.77952 10.4705C2.47079 10.6249 2.09537 10.4997 1.941 10.191C1.78663 9.88225 1.91177 9.50682 2.22051 9.35246L14.3855 3.26996C14.5762 3.17474 14.7868 3.125 15 3.125C15.2132 3.125 15.4235 3.17457 15.6142 3.26979L27.7795 9.35246C28.0883 9.50682 28.2134 9.88225 28.059 10.191C27.9047 10.4997 27.5292 10.6249 27.2205 10.4705L15.0558 4.38816C15.0558 4.38813 15.0559 4.38819 15.0558 4.38816C15.0386 4.37956 15.0193 4.375 15 4.375C14.9807 4.375 14.9615 4.37956 14.9442 4.38816ZM5.00001 13.0365C5.34519 13.0365 5.62501 13.3163 5.62501 13.6615V23.6615C5.62501 24.1588 5.82256 24.6357 6.17419 24.9873C6.52582 25.3389 7.00273 25.5365 7.50002 25.5365H22.5C22.9973 25.5365 23.4742 25.3389 23.8258 24.9873C24.1775 24.6357 24.375 24.1588 24.375 23.6615V13.6615C24.375 13.3163 24.6548 13.0365 25 13.0365C25.3452 13.0365 25.625 13.3163 25.625 13.6615V23.6615C25.625 24.4903 25.2958 25.2851 24.7097 25.8712C24.1237 26.4572 23.3288 26.7865 22.5 26.7865H7.50002C6.67121 26.7865 5.87636 26.4572 5.29031 25.8712C4.70425 25.2851 4.37501 24.4903 4.37501 23.6615V13.6615C4.37501 13.3163 4.65484 13.0365 5.00001 13.0365Z" fill="#CACACA"/>
</svg>
