<svg width="40" height="40" viewBox="0 0 40 40" fill="none" xmlns="http://www.w3.org/2000/svg">
<rect width="40" height="40" rx="15" fill="#F9F9FF"/>
<path fill-rule="evenodd" clip-rule="evenodd" d="M15 21.25C14.0054 21.25 13.0516 20.8549 12.3483 20.1517C11.6451 19.4484 11.25 18.4946 11.25 17.5C11.25 16.5054 11.6451 15.5516 12.3483 14.8483C13.0516 14.1451 14.0054 13.75 15 13.75C15.9946 13.75 16.9484 14.1451 17.6517 14.8483C18.3549 15.5516 18.75 16.5054 18.75 17.5C18.75 18.4946 18.3549 19.4484 17.6517 20.1517C16.9484 20.8549 15.9946 21.25 15 21.25ZM25 21.25C24.0054 21.25 23.0516 20.8549 22.3483 20.1517C21.6451 19.4484 21.25 18.4946 21.25 17.5C21.25 16.5054 21.6451 15.5516 22.3483 14.8483C23.0516 14.1451 24.0054 13.75 25 13.75C25.9946 13.75 26.9484 14.1451 27.6517 14.8483C28.3549 15.5516 28.75 16.5054 28.75 17.5C28.75 18.4946 28.3549 19.4484 27.6517 20.1517C26.9484 20.8549 25.9946 21.25 25 21.25ZM15 23.75C16.419 23.7483 17.822 24.0494 19.1153 24.6331C20.4086 25.2168 21.5626 26.0698 22.5 27.135V28.75H7.5V27.135C8.43744 26.0698 9.59136 25.2168 10.8847 24.6331C12.178 24.0494 13.581 23.7483 15 23.75ZM25 28.75V26.19L24.375 25.4813C23.8982 24.94 23.3754 24.4411 22.8125 23.99C23.5306 23.8298 24.2642 23.7493 25 23.75C26.419 23.7483 27.822 24.0494 29.1153 24.6331C30.4086 25.2168 31.5626 26.0698 32.5 27.135V28.75H25Z" fill="#00438A"/>
</svg>
