<svg width="40" height="40" viewBox="0 0 40 40" fill="none" xmlns="http://www.w3.org/2000/svg">
<rect width="40" height="40" rx="15" fill="#F9F9FF"/>
<rect width="30" height="30" transform="translate(5 5)" fill="#F9F9FF"/>
<path d="M29.843 18.1327L28.3676 11.9732C28.109 10.8986 27.02 10.2236 25.9394 10.4888C24.989 10.721 24.527 11.3792 24.3398 11.8424C24.1184 12.389 23.1302 14.8657 22.8992 15.3775C22.8182 15.5551 22.6472 15.6487 22.6124 15.6643C22.4162 15.7513 20.4524 16.5799 20.4524 16.5799V16.5835C20.2569 16.6735 20.0913 16.8175 19.975 16.9986C19.8587 17.1796 19.7966 17.3902 19.796 17.6053C19.796 18.2311 20.3084 18.7387 20.9402 18.7387C21.0764 18.7387 21.206 18.7105 21.3278 18.6673V18.6715L23.9348 17.5879C24.2924 17.4211 24.467 17.2099 24.6446 16.9021C24.719 16.7725 24.9452 16.2301 25.1294 15.7849L26.7026 22.3639L26.7008 32.5579C26.6978 33.5707 27.3974 34.3963 28.4198 34.3999C29.4434 34.4035 30.1832 33.5857 30.1898 32.5711L30.2 20.5393C30.1988 19.9735 29.9738 18.6289 29.843 18.1327Z" fill="#00438A"/>
<path d="M24.1394 10.184C25.4169 10.184 26.4524 9.15781 26.4524 7.89198C26.4524 6.62614 25.4169 5.59998 24.1394 5.59998C22.862 5.59998 21.8264 6.62614 21.8264 7.89198C21.8264 9.15781 22.862 10.184 24.1394 10.184Z" fill="#00438A"/>
<path d="M15.2786 27.2612V29.8292C15.5948 29.7773 15.8824 29.6151 16.0904 29.3714C16.298 29.1274 16.4018 28.8412 16.4018 28.5128C16.4018 28.2188 16.3149 27.965 16.1409 27.7514C15.9645 27.5402 15.6771 27.3768 15.2786 27.2612ZM13.6922 23.273C13.5362 23.4834 13.458 23.7158 13.4576 23.9702C13.4576 24.2038 13.5284 24.4198 13.67 24.6182C13.8132 24.819 14.028 24.9806 14.3144 25.103V22.8248C14.0648 22.9044 13.8469 23.0614 13.6922 23.273ZM19.7942 20.2226H19.7966L16.2117 13.0304L16.211 13.037C16.0772 12.7603 15.8679 12.5271 15.6073 12.3642C15.3467 12.2013 15.0454 12.1152 14.738 12.116H11.4338C10.532 12.1154 9.80005 12.8402 9.80005 13.7342V34.4H19.9796V21.0338C19.9779 20.7531 19.9146 20.4762 19.7942 20.2226ZM17.303 30.284C16.817 30.828 16.1429 31.1614 15.2804 31.2842V32.516H14.3162V31.3172C13.5494 31.2254 12.9284 30.9416 12.4484 30.4682C11.9708 29.9938 11.6656 29.3244 11.5328 28.46L13.2668 28.2746C13.3273 28.6049 13.4639 28.9165 13.6658 29.1848C13.8598 29.4392 14.0764 29.6234 14.3156 29.7374V26.9786C13.4476 26.7322 12.8112 26.3606 12.4064 25.8638C12.0004 25.3658 11.7974 24.7612 11.7974 24.05C11.797 23.33 12.0266 22.725 12.4862 22.235C12.9442 21.7454 13.5542 21.4636 14.3162 21.3896V20.7374H15.2804V21.3896C15.9841 21.4728 16.5442 21.7106 16.961 22.103C17.3762 22.4948 17.6421 23.0222 17.7579 23.6804L16.0772 23.8976C15.9748 23.38 15.7092 23.0288 15.2804 22.844V25.418C16.3433 25.704 17.0674 26.0738 17.453 26.5274C17.8378 26.9822 18.0304 27.565 18.0309 28.2758C18.0309 29.0698 17.7882 29.7392 17.303 30.284Z" fill="#00438A"/>
</svg>
