<svg width="40" height="40" viewBox="0 0 40 40" fill="none" xmlns="http://www.w3.org/2000/svg">
<rect width="40" height="40" rx="15" fill="#F9F9FF"/>
<path fill-rule="evenodd" clip-rule="evenodd" d="M8.965 11.465C7.5 12.9287 7.5 15.2862 7.5 20C7.5 24.7137 7.5 27.0712 8.965 28.535C10.43 29.9987 12.7863 30 17.5 30H22.5C27.2138 30 29.5713 30 31.035 28.535C32.4988 27.07 32.5 24.7137 32.5 20C32.5 15.2862 32.5 12.9287 31.035 11.465C29.57 10.0012 27.2138 10 22.5 10H17.5C12.7863 10 10.4288 10 8.965 11.465ZM20.9375 17.5C20.9375 17.2514 20.8387 17.0129 20.6629 16.8371C20.4871 16.6613 20.2486 16.5625 20 16.5625C19.7514 16.5625 19.5129 16.6613 19.3371 16.8371C19.1613 17.0129 19.0625 17.2514 19.0625 17.5V18.3762L18.3038 17.9387C18.0892 17.8245 17.8388 17.7981 17.6051 17.8649C17.3715 17.9318 17.1729 18.0868 17.0514 18.2972C16.9298 18.5076 16.8947 18.757 16.9534 18.9929C17.0121 19.2287 17.1602 19.4325 17.3663 19.5612L18.125 19.9987L17.3663 20.4375C17.1508 20.5618 16.9935 20.7666 16.929 21.0069C16.8646 21.2472 16.8982 21.5033 17.0225 21.7187C17.1468 21.9342 17.3517 22.0915 17.5919 22.156C17.8322 22.2204 18.0883 22.1868 18.3038 22.0625L19.0625 21.6237V22.5C19.0625 22.7486 19.1613 22.9871 19.3371 23.1629C19.5129 23.3387 19.7514 23.4375 20 23.4375C20.2486 23.4375 20.4871 23.3387 20.6629 23.1629C20.8387 22.9871 20.9375 22.7486 20.9375 22.5V21.625L21.6963 22.0625C21.9117 22.1868 22.1678 22.2204 22.4081 22.156C22.6484 22.0915 22.8532 21.9342 22.9775 21.7187C23.1018 21.5033 23.1354 21.2472 23.071 21.0069C23.0065 20.7666 22.8492 20.5618 22.6338 20.4375L21.875 20L22.6338 19.5625C22.8492 19.4382 23.0065 19.2333 23.071 18.9931C23.1354 18.7528 23.1018 18.4967 22.9775 18.2812C22.8532 18.0658 22.6484 17.9085 22.4081 17.844C22.1678 17.7796 21.9117 17.8132 21.6963 17.9375L20.9375 18.375V17.5ZM13.4163 16.5625C13.6649 16.5625 13.9033 16.6613 14.0792 16.8371C14.255 17.0129 14.3538 17.2514 14.3538 17.5V18.375L15.1113 17.9375C15.3267 17.8132 15.5828 17.7796 15.8231 17.844C16.0633 17.9085 16.2682 18.0658 16.3925 18.2812C16.5168 18.4967 16.5504 18.7528 16.486 18.9931C16.4215 19.2333 16.2642 19.4382 16.0488 19.5625L15.29 20L16.0488 20.4375C16.1555 20.4991 16.249 20.581 16.324 20.6787C16.399 20.7764 16.4541 20.888 16.486 21.0069C16.5179 21.1259 16.5261 21.25 16.51 21.3721C16.494 21.4943 16.4541 21.612 16.3925 21.7187C16.3309 21.8254 16.249 21.919 16.1513 21.994C16.0536 22.069 15.942 22.1241 15.8231 22.156C15.7041 22.1879 15.58 22.1961 15.4579 22.18C15.3357 22.164 15.218 22.1241 15.1113 22.0625L14.3538 21.625V22.5C14.3538 22.7486 14.255 22.9871 14.0792 23.1629C13.9033 23.3387 13.6649 23.4375 13.4163 23.4375C13.1676 23.4375 12.9292 23.3387 12.7533 23.1629C12.5775 22.9871 12.4788 22.7486 12.4788 22.5V21.6237L11.7188 22.0612C11.5042 22.1755 11.2538 22.2019 11.0201 22.1351C10.7865 22.0682 10.5879 21.9132 10.4664 21.7028C10.3448 21.4924 10.3097 21.243 10.3684 21.0071C10.4271 20.7713 10.5752 20.5675 10.7813 20.4387L11.54 20L10.7813 19.5625C10.6746 19.5009 10.581 19.419 10.506 19.3213C10.431 19.2236 10.3759 19.112 10.344 18.9931C10.3121 18.8741 10.3039 18.75 10.32 18.6279C10.336 18.5057 10.3759 18.3879 10.4375 18.2812C10.4991 18.1745 10.581 18.081 10.6787 18.006C10.7764 17.931 10.888 17.8759 11.0069 17.844C11.1259 17.8121 11.25 17.8039 11.3721 17.82C11.4943 17.836 11.6121 17.8759 11.7188 17.9375L12.4788 18.3762V17.5C12.4788 17.2514 12.5775 17.0129 12.7533 16.8371C12.9292 16.6613 13.1676 16.5625 13.4163 16.5625ZM27.5225 17.5C27.5225 17.2514 27.4237 17.0129 27.2479 16.8371C27.0721 16.6613 26.8336 16.5625 26.585 16.5625C26.3364 16.5625 26.0979 16.6613 25.9221 16.8371C25.7463 17.0129 25.6475 17.2514 25.6475 17.5V18.3762L24.8888 17.9387C24.6742 17.8245 24.4238 17.7981 24.1901 17.8649C23.9565 17.9318 23.7579 18.0868 23.6364 18.2972C23.5148 18.5076 23.4797 18.757 23.5384 18.9929C23.5971 19.2287 23.7452 19.4325 23.9513 19.5612L24.71 19.9987L23.95 20.4375C23.7345 20.5618 23.5772 20.7666 23.5128 21.0069C23.4483 21.2472 23.4819 21.5033 23.6063 21.7187C23.7306 21.9342 23.9354 22.0915 24.1757 22.156C24.416 22.2204 24.672 22.1868 24.8875 22.0625L25.6475 21.6237V22.5C25.6475 22.7486 25.7463 22.9871 25.9221 23.1629C26.0979 23.3387 26.3364 23.4375 26.585 23.4375C26.8336 23.4375 27.0721 23.3387 27.2479 23.1629C27.4237 22.9871 27.5225 22.7486 27.5225 22.5V21.625L28.2813 22.0625C28.4967 22.1868 28.7528 22.2204 28.9931 22.156C29.2334 22.0915 29.4382 21.9342 29.5625 21.7187C29.6868 21.5033 29.7205 21.2472 29.656 21.0069C29.5915 20.7666 29.4342 20.5618 29.2188 20.4375L28.46 20L29.2188 19.5625C29.4342 19.4382 29.5915 19.2333 29.656 18.9931C29.7205 18.7528 29.6868 18.4967 29.5625 18.2812C29.4382 18.0658 29.2334 17.9085 28.9931 17.844C28.7528 17.7796 28.4967 17.8132 28.2813 17.9375L27.5225 18.375V17.5Z" fill="#00438A"/>
</svg>
