<svg width="40" height="40" viewBox="0 0 40 40" fill="none" xmlns="http://www.w3.org/2000/svg">
<rect width="40" height="40" rx="15" fill="#F9F9FF"/>
<rect width="30" height="30" transform="translate(5 5)" fill="#F9F9FF"/>
<path d="M30.8333 17.5H22.5V9.16663C22.5 8.50359 22.2366 7.8677 21.7677 7.39886C21.2989 6.93002 20.663 6.66663 20 6.66663C19.3369 6.66663 18.701 6.93002 18.2322 7.39886C17.7634 7.8677 17.5 8.50359 17.5 9.16663V17.5H9.16663C8.50359 17.5 7.8677 17.7634 7.39886 18.2322C6.93002 18.701 6.66663 19.3369 6.66663 20C6.66663 20.663 6.93002 21.2989 7.39886 21.7677C7.8677 22.2366 8.50359 22.5 9.16663 22.5H17.5V30.8333C17.5 31.4963 17.7634 32.1322 18.2322 32.6011C18.701 33.0699 19.3369 33.3333 20 33.3333C20.663 33.3333 21.2989 33.0699 21.7677 32.6011C22.2366 32.1322 22.5 31.4963 22.5 30.8333V22.5H30.8333C31.4963 22.5 32.1322 22.2366 32.6011 21.7677C33.0699 21.2989 33.3333 20.663 33.3333 20C33.3333 19.3369 33.0699 18.701 32.6011 18.2322C32.1322 17.7634 31.4963 17.5 30.8333 17.5Z" fill="#00438A"/>
</svg>
