<svg width="30" height="30" viewBox="0 0 30 30" fill="none" xmlns="http://www.w3.org/2000/svg">
<g clip-path="url(#clip0_1068_509)">
<path fill-rule="evenodd" clip-rule="evenodd" d="M15 0.141483C14.52 0.140739 14.0494 0.27435 13.6414 0.527197L0.977143 8.82006C0.0771429 9.41363 -0.197143 10.4358 0.15 11.3079C0.484286 12.1479 1.32857 12.7158 2.33571 12.7158H27.6643C28.6714 12.7158 29.5157 12.1479 29.85 11.3079C30.1971 10.4358 29.9229 9.41363 29.025 8.8222L29.0229 8.82006L16.3586 0.527197C15.9506 0.27435 15.48 0.140739 15 0.141483ZM0 25.4508C0 24.1651 1.22571 23.5458 2.14286 23.5458H2.26071L2.25429 23.4301V16.5493C2.25429 16.2652 2.36717 15.9927 2.5681 15.7917C2.76903 15.5908 3.04155 15.4779 3.32571 15.4779H6.89143C7.17559 15.4779 7.44811 15.5908 7.64904 15.7917C7.84997 15.9927 7.96286 16.2652 7.96286 16.5493V23.4301L7.95643 23.5458H12.1521L12.1457 23.4301V16.5493C12.1457 16.2652 12.2586 15.9927 12.4595 15.7917C12.6605 15.5908 12.933 15.4779 13.2171 15.4779H16.7829C16.9236 15.4779 17.0629 15.5056 17.1929 15.5595C17.3229 15.6133 17.441 15.6922 17.5405 15.7917C17.64 15.8912 17.7189 16.0093 17.7727 16.1393C17.8266 16.2693 17.8543 16.4086 17.8543 16.5493V23.4301L17.8479 23.5458H22.0436L22.0371 23.4301V16.5493C22.0371 16.2652 22.15 15.9927 22.351 15.7917C22.5519 15.5908 22.8244 15.4779 23.1086 15.4779H26.6743C26.9584 15.4779 27.231 15.5908 27.4319 15.7917C27.6328 15.9927 27.7457 16.2652 27.7457 16.5493V23.4301L27.7393 23.5458H27.8571C28.7743 23.5458 30 24.1651 30 25.4529V27.9536C30 29.2393 28.7743 29.8586 27.8571 29.8586H2.14286C1.22571 29.8586 0 29.2393 0 27.9515V25.4508Z" fill="#00438A"/>
</g>
<defs>
<clipPath id="clip0_1068_509">
<rect width="30" height="30" fill="white"/>
</clipPath>
</defs>
</svg>
