<svg width="40" height="39" viewBox="0 0 40 39" fill="none" xmlns="http://www.w3.org/2000/svg">
<path fill-rule="evenodd" clip-rule="evenodd" d="M40 29.0224C40 28.3864 39.9408 27.7658 39.8185 27.1252L39.7709 26.8788H39.7645C39.2179 24.4703 37.7839 22.2939 35.8008 20.8773C35.6643 20.7794 35.4752 20.8112 35.3771 20.9473C35.2797 21.0833 35.3107 21.2727 35.447 21.37C37.3723 22.7458 38.7475 24.8858 39.2212 27.2412L39.2337 27.3027C39.3411 27.883 39.393 28.4461 39.393 29.0224C39.393 29.1897 39.5287 29.3255 39.6965 29.3255C39.8643 29.3255 40 29.1897 40 29.0224ZM22.4561 23.3727C23.8561 21.4997 25.8956 20.223 28.1998 19.7779C28.7834 19.6636 29.3852 19.6061 29.988 19.6061C31.4247 19.6061 32.8102 19.9276 34.107 20.5612C34.2582 20.6348 34.44 20.573 34.5131 20.4224C34.5865 20.2721 34.5243 20.0906 34.3738 20.017C32.9935 19.3421 31.5182 19 29.988 19C29.3461 19 28.7051 19.0615 28.0838 19.183C25.6316 19.657 23.4604 21.0161 21.9696 23.0103C21.8691 23.1445 21.8971 23.3342 22.0312 23.4342C22.0858 23.4748 22.1493 23.4945 22.2124 23.4945C22.3053 23.4945 22.3966 23.4524 22.4561 23.3727ZM20.6142 31.5527C20.7772 31.5136 20.8776 31.35 20.8388 31.1873C20.8327 31.1621 20.8266 31.1409 20.8209 31.1212H20.8215L20.7577 30.7597C20.3523 28.7115 20.6712 26.5527 21.6427 24.6806C21.7198 24.5321 21.6773 24.3491 21.5286 24.2721C21.3796 24.1952 21.2279 24.2533 21.1508 24.4018C20.1213 26.3852 19.6658 28.6718 20.2727 30.8442V30.8458C20.2727 31.0752 20.2558 31.1594 20.2885 31.2545C20.2955 31.2752 20.2409 31.2973 20.2485 31.3291C20.2819 31.4676 20.4063 31.5615 20.5435 31.5615C20.5668 31.5609 20.5905 31.5579 20.6142 31.5527ZM27.7949 38.5779C30.221 35.3494 30.9649 32.4703 30.2839 28.9506C30.252 28.7864 30.0921 28.6788 29.9282 28.7106C29.7637 28.7424 29.6562 28.9012 29.6878 29.0658C30.3428 32.4445 29.6532 35.0948 27.3096 38.2139C27.2088 38.3479 27.2362 38.5379 27.3703 38.6379C27.4249 38.6788 27.489 38.6985 27.5521 38.6985C27.6444 38.6994 27.7354 38.6576 27.7949 38.5779ZM29.1233 38.8161C31.4942 35.4697 32.1977 32.4503 31.4754 28.7209C31.3983 28.3227 31.1704 27.9785 30.8341 27.7515C30.4987 27.5252 30.0948 27.443 29.6975 27.5203C29.2996 27.5973 28.9555 27.8242 28.7285 28.16C28.5017 28.4955 28.4192 28.8994 28.4963 29.2967C28.7667 30.6933 28.7676 31.9552 28.4993 33.1542C28.4629 33.3176 28.5658 33.4794 28.7294 33.5158C28.8939 33.5524 29.0553 33.4494 29.0917 33.2861C29.3785 32.0045 29.3788 30.6612 29.0923 29.1809C29.0462 28.9421 29.0957 28.6997 29.2317 28.4982C29.3676 28.2967 29.574 28.1606 29.8132 28.1142C30.052 28.0682 30.2936 28.1173 30.4945 28.2527C30.6966 28.3888 30.8332 28.5955 30.8802 28.8348C31.568 32.3864 30.8945 35.267 28.6283 38.4652C28.5315 38.6018 28.564 38.7906 28.7008 38.8879C28.7543 38.9255 28.8153 38.9436 28.876 38.9436C28.9703 38.9436 29.0641 38.8994 29.1233 38.8161ZM26.5715 38.1797C27.4823 37.013 28.1409 35.9309 28.5846 34.8706C28.6492 34.7161 28.5761 34.5385 28.4213 34.4739C28.2659 34.4088 28.0887 34.4818 28.0243 34.6367C27.6019 35.6464 26.97 36.6833 26.0929 37.8067C25.9897 37.9388 26.0134 38.1288 26.1457 38.2315C26.2012 38.2748 26.2668 38.2958 26.332 38.2958C26.4225 38.2964 26.5117 38.2564 26.5715 38.1797ZM25.4486 37.6427C27.6252 34.9297 28.3661 32.7321 28.0049 30.0582C27.9825 29.8918 27.8286 29.7776 27.6635 29.7985C27.4975 29.8209 27.3809 29.9733 27.4034 30.1394C27.7445 32.6633 27.0635 34.6612 24.9751 37.2642C24.8701 37.3952 24.8914 37.5861 25.0222 37.69C25.078 37.7348 25.1451 37.7567 25.2118 37.7567C25.3005 37.7564 25.3888 37.7182 25.4486 37.6427ZM32.6505 31.4242C32.8184 31.4242 32.9519 31.2927 32.9495 31.1261C32.9364 30.273 32.842 29.3918 32.6666 28.49C32.4184 27.2088 31.2921 26.2791 29.9874 26.2791C29.8128 26.2791 29.6374 26.2961 29.4663 26.3291C28.7497 26.4679 28.1303 26.877 27.7218 27.4809C27.5257 27.7712 27.3888 28.0918 27.3151 28.4339C27.2799 28.5976 27.384 28.7588 27.5479 28.7939C27.7124 28.8282 27.8732 28.7248 27.9084 28.5615C27.9658 28.2952 28.0726 28.0452 28.225 27.8194C28.5424 27.3497 29.0244 27.0309 29.5819 26.923C29.7151 26.8973 29.8517 26.883 29.9874 26.883C31.0016 26.883 31.8778 27.6042 32.0709 28.6006C32.2387 29.4679 32.33 30.3176 32.3425 31.1352C32.3449 31.3009 32.48 31.4245 32.646 31.4245C32.6472 31.4242 32.649 31.4242 32.6505 31.4242ZM30.5534 38.8621C31.8718 36.8352 32.6284 34.8467 32.866 32.783C32.8848 32.6167 32.7659 32.4664 32.5992 32.4476C32.432 32.4288 32.2821 32.5479 32.2633 32.7139C32.0363 34.6821 31.3103 36.5852 30.0441 38.5318C29.9528 38.6724 29.9928 38.86 30.1333 38.9512C30.1846 38.9842 30.242 39 30.2984 39C30.3977 39 30.4957 38.9515 30.5534 38.8621ZM32.0967 38.6797C34.0339 35.3648 34.5941 32.0536 33.8591 28.2591C33.6433 27.1467 32.9552 26.1788 31.9722 25.6042C31.8278 25.5194 31.6417 25.5679 31.5573 25.7124C31.4727 25.857 31.5212 26.0424 31.6657 26.127C32.4982 26.6136 33.0803 27.4327 33.2633 28.3742C33.9683 32.0161 33.4317 35.1936 31.5728 38.3742C31.4888 38.5191 31.5376 38.7045 31.6818 38.7885C31.7297 38.817 31.7825 38.83 31.8347 38.83C31.9385 38.83 32.0402 38.777 32.0967 38.6797ZM24.4261 36.9788C26.6061 34.2958 27.2246 32.3073 26.7087 29.6424C26.539 28.7673 26.7205 27.8788 27.2201 27.1406C27.7196 26.4021 28.4766 25.9024 29.3521 25.7327C29.6514 25.6742 29.9619 25.6597 30.2626 25.6836C30.428 25.697 30.5761 25.5727 30.5895 25.4061C30.6032 25.2394 30.4787 25.093 30.3115 25.0797C29.9561 25.0509 29.5895 25.0691 29.2362 25.1376C28.2016 25.3376 27.3069 25.9285 26.7169 26.8009C26.1269 27.673 25.9123 28.723 26.1126 29.757C26.5894 32.2197 26.0046 34.0733 23.9548 36.5961C23.8491 36.7264 23.8689 36.9173 23.9991 37.0221C24.0552 37.0676 24.1229 37.0903 24.19 37.0903C24.2786 37.0909 24.366 37.0527 24.4261 36.9788ZM33.7498 38.1915C34.2038 37.2842 34.5695 36.3488 34.8369 35.4109C34.8824 35.25 34.7893 35.0824 34.6281 35.0367C34.4667 34.9903 34.2988 35.0842 34.2533 35.2452C33.9965 36.147 33.6451 37.0467 33.2075 37.9203C33.1325 38.07 33.1929 38.2521 33.3428 38.327C33.3868 38.3482 33.433 38.3585 33.4785 38.3585C33.5896 38.3591 33.6964 38.2982 33.7498 38.1915ZM35.1987 33.8036C35.4979 31.9779 35.4497 30.0885 35.0506 28.0288C34.5817 25.6091 32.4527 23.8527 29.9886 23.8527C29.6587 23.8527 29.3282 23.8845 29.0065 23.9473C27.6532 24.2085 26.4832 24.9812 25.7117 26.1227C24.9399 27.2636 24.6595 28.6367 24.9214 29.9891C25.0537 30.6721 25.0892 31.2455 25.0334 31.7939C25.0164 31.9606 25.1378 32.1091 25.3044 32.1264C25.4738 32.14 25.62 32.0221 25.637 31.8555C25.6996 31.2464 25.6613 30.6167 25.5175 29.8736C25.2859 28.6803 25.5336 27.4688 26.2146 26.4618C26.8953 25.4548 27.9275 24.773 29.1221 24.5424C29.4059 24.487 29.6975 24.4591 29.9883 24.4591C32.1628 24.4591 34.0412 26.0088 34.4548 28.1442C34.84 30.1324 34.887 31.9518 34.5996 33.7061C34.5726 33.8712 34.6843 34.027 34.8503 34.0536C34.867 34.0567 34.8828 34.0579 34.8994 34.0579C35.0454 34.0573 35.1744 33.9521 35.1987 33.8036ZM23.4995 36.1939C24.3032 35.1997 24.8619 34.3173 25.207 33.4973C25.2719 33.3427 25.1994 33.1652 25.0446 33.1003C24.8895 33.0358 24.7123 33.1079 24.6473 33.2618C24.3247 34.0288 23.7945 34.8633 23.027 35.8133C22.9217 35.9436 22.9423 36.1345 23.0725 36.2394C23.1286 36.2842 23.196 36.3064 23.2628 36.3064C23.3517 36.3064 23.4397 36.2679 23.4995 36.1939ZM22.6698 35.2885C24.6498 32.7921 24.5982 31.5145 24.3253 30.1039C24.0325 28.593 24.346 27.0582 25.2082 25.7824C25.5178 25.3248 25.8896 24.9145 26.3138 24.5633C26.4428 24.4564 26.4607 24.2655 26.3536 24.1367C26.2465 24.0079 26.0553 23.9903 25.9263 24.097C25.4577 24.4848 25.0467 24.9379 24.705 25.4433C23.752 26.853 23.4057 28.5491 23.7293 30.2185C23.9806 31.5164 24.0176 32.6127 22.1939 34.9118C22.0898 35.0433 22.1119 35.2336 22.2437 35.3376C22.2995 35.3818 22.3657 35.403 22.4318 35.403C22.5214 35.4033 22.61 35.3639 22.6698 35.2885ZM35.4937 37.29C36.6798 34.3021 36.9174 31.2861 36.2421 27.7979C36.0691 26.903 35.7128 26.0721 35.1838 25.3279C35.0867 25.1915 34.8976 25.1594 34.7604 25.2564C34.6239 25.3533 34.5914 25.5424 34.6888 25.6791C35.1674 26.3521 35.4897 27.1039 35.646 27.9133C36.2986 31.2827 36.0709 34.1912 34.9295 37.0673C34.8679 37.2227 34.9441 37.3991 35.1001 37.4606C35.1368 37.4752 35.1741 37.4818 35.2114 37.4818C35.3322 37.4818 35.4466 37.4094 35.4937 37.29ZM34.0742 24.5191C34.1811 24.39 34.1626 24.1988 34.0327 24.0924C32.8939 23.1555 31.4578 22.6394 29.988 22.6394C29.5801 22.6394 29.1719 22.6785 28.7752 22.7561C28.2896 22.85 27.8137 23.0006 27.3612 23.2042C27.2085 23.273 27.1403 23.4524 27.2092 23.6048C27.2777 23.7573 27.4571 23.8255 27.6104 23.7567C28.0201 23.5724 28.4511 23.4361 28.8911 23.3509C29.2499 23.2809 29.6189 23.2455 29.988 23.2455C31.317 23.2455 32.6165 23.7124 33.6466 24.56C33.7031 24.6067 33.771 24.6294 33.8393 24.6294C33.927 24.6294 34.0135 24.5918 34.0742 24.5191ZM37.3341 28.8045C37.4998 28.7791 37.6136 28.6242 37.5878 28.4588C37.5426 28.1639 37.4922 27.8673 37.4339 27.5676C36.7444 24.0091 33.6132 21.4264 29.988 21.4264C29.5027 21.4264 29.0168 21.473 28.5448 21.5652C26.5551 21.95 24.8343 23.0861 23.6995 24.7642C23.0944 25.6591 22.6943 26.6485 22.5104 27.7045C22.4816 27.8694 22.5924 28.0264 22.7575 28.0552C22.9244 28.0839 23.0798 27.9733 23.1086 27.8085C23.2777 26.837 23.6458 25.927 24.2024 25.1033C25.2464 23.5594 26.8295 22.5142 28.6605 22.16C29.0951 22.0755 29.5415 22.0324 29.988 22.0324C33.3231 22.0324 36.2039 24.4088 36.8382 27.6827C36.8946 27.9752 36.9438 28.2642 36.9878 28.5518C37.0106 28.7015 37.1402 28.8085 37.2874 28.8085C37.3028 28.8082 37.3183 28.807 37.3341 28.8045ZM37.2761 35.8058C37.7651 33.9682 37.928 32.0955 37.7757 30.0806C37.7629 29.9136 37.6173 29.7894 37.4506 29.8012C37.2831 29.8136 37.1578 29.9591 37.1705 30.1258C37.318 32.0721 37.1608 33.8791 36.6898 35.6497C36.6467 35.8112 36.7435 35.9776 36.9053 36.0206C36.9314 36.0273 36.9581 36.0306 36.9836 36.0306C37.1177 36.0309 37.2403 35.9412 37.2761 35.8058ZM21.942 34.2485C23.4947 32.2006 23.3192 31.2939 23.1335 30.3333C23.071 30.0121 23.0309 29.6812 23.0139 29.3485C23.0057 29.1809 22.8658 29.0524 22.6956 29.0612C22.5283 29.0697 22.3993 29.2121 22.4078 29.3791C22.4261 29.7397 22.4698 30.0997 22.5374 30.4485C22.7104 31.343 22.8473 32.0497 21.4579 33.8821C21.3568 34.0155 21.3829 34.2058 21.5168 34.3064C21.5717 34.3479 21.6361 34.3679 21.6998 34.3679C21.7914 34.3688 21.8822 34.3273 21.942 34.2485ZM21.3259 33.0345C22.1775 31.7821 22.0682 31.2176 21.942 30.5642C21.5259 28.4173 21.9717 26.2367 23.1969 24.4239C24.4225 22.6112 26.2811 21.3842 28.4304 20.9688C29.2799 20.8027 30.1695 20.773 31.0505 20.8888C31.2177 20.9085 31.3695 20.7936 31.3907 20.6279C31.4126 20.4618 31.296 20.3097 31.1294 20.2879C30.1843 20.1636 29.2271 20.1955 28.3148 20.3739C26.0067 20.8203 24.0103 22.1382 22.694 24.0852C21.3781 26.0318 20.8992 28.3739 21.3462 30.6797C21.4594 31.2645 21.5341 31.6503 20.8242 32.6942C20.7298 32.8327 20.7662 33.0215 20.9049 33.1155C20.9571 33.1509 21.0163 33.1679 21.0752 33.1679C21.1717 33.1676 21.267 33.1212 21.3259 33.0345ZM38.6555 33.6782C38.6458 33.6782 38.6355 33.6776 38.6243 33.677C38.4576 33.6594 38.3365 33.5109 38.3529 33.3442C38.5429 31.4833 38.4364 29.5564 38.0294 27.4518C37.4673 24.5536 35.3729 22.1727 32.5634 21.2379C32.4047 21.1848 32.3185 21.0133 32.3716 20.8545C32.4247 20.6961 32.5953 20.6097 32.7555 20.663C35.772 21.6667 38.0218 24.2242 38.6252 27.337C39.0443 29.5006 39.1529 31.4858 38.9572 33.4061C38.942 33.5621 38.8097 33.6782 38.6555 33.6782Z" fill="#00438A"/>
<path fill-rule="evenodd" clip-rule="evenodd" d="M20 16.7578V14.5117C20 14.2313 19.7726 14.0039 19.4922 14.0039C19.2117 14.0039 18.9844 14.2313 18.9844 14.5117V16.7578C18.9844 17.9855 17.9855 18.9844 16.7578 18.9844H14.5117C14.2313 18.9844 14.0039 19.2117 14.0039 19.4922C14.0039 19.7726 14.2313 20 14.5117 20H16.7578C18.5455 20 20 18.5455 20 16.7578ZM5.99609 19.4922C5.99609 19.2117 5.76873 18.9844 5.48828 18.9844H3.24219C2.01447 18.9844 1.01562 17.9855 1.01562 16.7578V14.5117C1.01562 14.2313 0.788262 14.0039 0.507812 14.0039C0.227363 14.0039 0 14.2313 0 14.5117V16.7578C0 18.5455 1.45445 20 3.24219 20H5.48828C5.76873 20 5.99609 19.7726 5.99609 19.4922ZM1.01562 5.48828V3.24219C1.01562 2.01445 2.01447 1.01562 3.24219 1.01562H5.48828C5.76873 1.01562 5.99609 0.788262 5.99609 0.507812C5.99609 0.227363 5.76873 0 5.48828 0H3.24219C1.45445 0 0 1.45443 0 3.24219V5.48828C0 5.76873 0.227363 5.99609 0.507812 5.99609C0.788262 5.99609 1.01562 5.76873 1.01562 5.48828ZM20 5.48828V3.24219C20 1.45443 18.5455 0 16.7578 0H14.5117C14.2313 0 14.0039 0.227363 14.0039 0.507812C14.0039 0.788262 14.2313 1.01562 14.5117 1.01562H16.7578C17.9855 1.01562 18.9844 2.01445 18.9844 3.24219V5.48828C18.9844 5.76873 19.2117 5.99609 19.4922 5.99609C19.7726 5.99609 20 5.76873 20 5.48828ZM13.5045 14.782C13.7184 14.5843 13.7317 14.2507 13.534 14.0368C13.3364 13.8228 13.0028 13.8096 12.7888 14.0072C12.0276 14.7104 11.0371 15.0977 10 15.0977C8.96288 15.0977 7.97245 14.7104 7.21118 14.0072C6.9972 13.8096 6.66362 13.8228 6.46599 14.0368C6.26837 14.2507 6.28159 14.5843 6.49554 14.782C7.45228 15.6657 8.69683 16.1524 10 16.1524C11.3032 16.1524 12.5477 15.6657 13.5045 14.782ZM11.0547 11.2891V7.53906C11.0547 7.24781 10.8186 7.01172 10.5273 7.01172C10.2361 7.01172 10 7.24781 10 7.53906V11.2891C10 11.4506 9.86857 11.582 9.70703 11.582H9.27734C8.98609 11.582 8.75 11.8181 8.75 12.1094C8.75 12.4006 8.98609 12.6367 9.27734 12.6367H9.70703C10.4501 12.6367 11.0547 12.0322 11.0547 11.2891ZM14.6875 9.01367V7.50977C14.6875 7.23471 14.4645 7.01172 14.1895 7.01172C13.9144 7.01172 13.6914 7.23471 13.6914 7.50977V9.01367C13.6914 9.28873 13.9144 9.51172 14.1895 9.51172C14.4645 9.51172 14.6875 9.28873 14.6875 9.01367ZM5.92773 9.51172C5.65268 9.51172 5.42969 9.28873 5.42969 9.01367V7.50977C5.42969 7.23471 5.65268 7.01172 5.92773 7.01172C6.20279 7.01172 6.42578 7.23471 6.42578 7.50977V9.01367C6.42578 9.28873 6.20279 9.51172 5.92773 9.51172Z" fill="#00438A"/>
</svg>
