<svg width="40" height="40" viewBox="0 0 40 40" fill="none" xmlns="http://www.w3.org/2000/svg">
<rect width="40" height="40" rx="15" fill="#F9F9FF"/>
<g clip-path="url(#clip0_1071_1811)">
<rect width="30" height="30" transform="translate(5 5)" fill="#F9F9FF"/>
<path fill-rule="evenodd" clip-rule="evenodd" d="M20 5.14148C19.52 5.14074 19.0494 5.27435 18.6414 5.5272L5.97714 13.8201C5.07714 14.4136 4.80286 15.4358 5.15 16.3079C5.48429 17.1479 6.32857 17.7158 7.33571 17.7158H32.6643C33.6714 17.7158 34.5157 17.1479 34.85 16.3079C35.1971 15.4358 34.9229 14.4136 34.025 13.8222L34.0229 13.8201L21.3586 5.5272C20.9506 5.27435 20.48 5.14074 20 5.14148ZM5 30.4508C5 29.1651 6.22571 28.5458 7.14286 28.5458H7.26071L7.25429 28.4301V21.5493C7.25429 21.2652 7.36717 20.9927 7.5681 20.7917C7.76903 20.5908 8.04155 20.4779 8.32571 20.4779H11.8914C12.1756 20.4779 12.4481 20.5908 12.649 20.7917C12.85 20.9927 12.9629 21.2652 12.9629 21.5493V28.4301L12.9564 28.5458H17.1521L17.1457 28.4301V21.5493C17.1457 21.2652 17.2586 20.9927 17.4595 20.7917C17.6605 20.5908 17.933 20.4779 18.2171 20.4779H21.7829C21.9236 20.4779 22.0629 20.5056 22.1929 20.5595C22.3229 20.6133 22.441 20.6922 22.5405 20.7917C22.64 20.8912 22.7189 21.0093 22.7727 21.1393C22.8266 21.2693 22.8543 21.4086 22.8543 21.5493V28.4301L22.8479 28.5458H27.0436L27.0371 28.4301V21.5493C27.0371 21.2652 27.15 20.9927 27.351 20.7917C27.5519 20.5908 27.8244 20.4779 28.1086 20.4779H31.6743C31.9584 20.4779 32.231 20.5908 32.4319 20.7917C32.6328 20.9927 32.7457 21.2652 32.7457 21.5493V28.4301L32.7393 28.5458H32.8571C33.7743 28.5458 35 29.1651 35 30.4529V32.9536C35 34.2393 33.7743 34.8586 32.8571 34.8586H7.14286C6.22571 34.8586 5 34.2393 5 32.9515V30.4508Z" fill="#00438A"/>
</g>
<defs>
<clipPath id="clip0_1071_1811">
<rect width="30" height="30" fill="white" transform="translate(5 5)"/>
</clipPath>
</defs>
</svg>
