<svg width="233" height="233" viewBox="0 0 233 233" fill="none" xmlns="http://www.w3.org/2000/svg">
<path d="M116.5 138.344C108.089 138.351 99.8081 136.274 92.3965 132.298C84.9849 128.322 78.6742 122.572 74.0285 115.561L86.159 107.5C89.4798 112.508 93.9882 116.616 99.2823 119.457C104.576 122.299 110.492 123.786 116.5 123.786C122.509 123.786 128.424 122.299 133.718 119.457C139.012 116.616 143.52 112.508 146.841 107.5L158.972 115.561C154.326 122.572 148.015 128.322 140.604 132.298C133.192 136.274 124.911 138.351 116.5 138.344ZM145.625 58.25C142.745 58.25 139.929 59.1041 137.535 60.7042C135.14 62.3044 133.273 64.5787 132.171 67.2397C131.069 69.9006 130.78 72.8287 131.342 75.6535C131.904 78.4784 133.291 81.0731 135.328 83.1098C137.364 85.1464 139.959 86.5333 142.784 87.0952C145.609 87.6571 148.537 87.3687 151.198 86.2665C153.859 85.1643 156.133 83.2978 157.733 80.903C159.333 78.5082 160.188 75.6927 160.188 72.8125C160.207 70.8947 159.844 68.9923 159.119 67.2167C158.394 65.4411 157.322 63.828 155.966 62.4719C154.609 61.1157 152.996 60.0438 151.221 59.3188C149.445 58.5939 147.543 58.2305 145.625 58.25ZM87.375 58.25C84.4948 58.25 81.6793 59.1041 79.2845 60.7042C76.8897 62.3044 75.0232 64.5787 73.921 67.2397C72.8188 69.9006 72.5304 72.8287 73.0923 75.6535C73.6542 78.4784 75.0412 81.0731 77.0778 83.1098C79.1144 85.1464 81.7092 86.5333 84.534 87.0952C87.3589 87.6571 90.2869 87.3687 92.9478 86.2665C95.6088 85.1643 97.8831 83.2978 99.4833 80.903C101.083 78.5082 101.938 75.6927 101.938 72.8125C101.957 70.8947 101.594 68.9923 100.869 67.2167C100.144 65.4411 99.0718 63.828 97.7156 62.4719C96.3595 61.1157 94.7464 60.0438 92.9708 59.3188C91.1952 58.5939 89.2928 58.2305 87.375 58.25Z" fill="#ECEDF6"/>
<path d="M129.14 218.438L116.5 211.156L145.625 160.188H189.312C191.226 160.19 193.121 159.816 194.889 159.085C196.657 158.354 198.263 157.281 199.616 155.929C200.969 154.576 202.042 152.969 202.772 151.201C203.503 149.433 203.878 147.538 203.875 145.625V43.6875C203.878 41.7743 203.503 39.8794 202.772 38.1113C202.042 36.3432 200.969 34.7367 199.616 33.3838C198.263 32.031 196.657 30.9585 194.889 30.2276C193.121 29.4968 191.226 29.1221 189.312 29.125H43.6875C41.7743 29.1221 39.8794 29.4968 38.1113 30.2276C36.3432 30.9585 34.7367 32.031 33.3838 33.3838C32.031 34.7367 30.9585 36.3432 30.2276 38.1113C29.4968 39.8794 29.1221 41.7743 29.125 43.6875V145.625C29.1221 147.538 29.4968 149.433 30.2276 151.201C30.9585 152.969 32.031 154.576 33.3838 155.929C34.7367 157.281 36.3432 158.354 38.1113 159.085C39.8794 159.816 41.7743 160.19 43.6875 160.188H109.219V174.75H43.6875C35.9631 174.75 28.555 171.681 23.093 166.219C17.631 160.757 14.5625 153.349 14.5625 145.625V43.6875C14.5625 35.9631 17.631 28.555 23.093 23.093C28.555 17.631 35.9631 14.5625 43.6875 14.5625H189.312C197.037 14.5625 204.445 17.631 209.907 23.093C215.369 28.555 218.438 35.9631 218.438 43.6875V145.625C218.438 153.349 215.369 160.757 209.907 166.219C204.445 171.681 197.037 174.75 189.312 174.75H154.108L129.14 218.438Z" fill="#ECEDF6"/>
</svg>
