<svg width="40" height="40" viewBox="0 0 40 40" fill="none" xmlns="http://www.w3.org/2000/svg">
<rect width="40" height="40" rx="15" fill="#F9F9FF"/>
<rect width="30" height="30" transform="translate(5 5)" fill="#F9F9FF"/>
<path d="M6.21396 14.5004H33.7861V13.3325C33.7861 10.7466 32.4683 9.44055 29.8438 9.44055H10.1563C7.53236 9.44055 6.21343 10.7466 6.21343 13.3331L6.21396 14.5004ZM6.21396 26.6798C6.21396 29.2663 7.53182 30.5595 10.1563 30.5595H29.8438C32.4677 30.5595 33.7866 29.2663 33.7866 26.6798V17.3509H6.21289L6.21396 26.6798ZM10.4075 23.6161V21.2932C10.4075 20.5904 10.8972 20.0879 11.6381 20.0879H14.7141C15.455 20.0879 15.9447 20.5904 15.9447 21.2932V23.6161C15.9447 24.3318 15.455 24.8214 14.7141 24.8214H11.6375C10.8966 24.8214 10.4075 24.3318 10.4075 23.6161Z" fill="#00438A"/>
</svg>
