<svg width="40" height="40" viewBox="0 0 40 40" fill="none" xmlns="http://www.w3.org/2000/svg">
<rect width="40" height="40" rx="15" fill="#F9F9FF"/>
<rect width="30" height="30" transform="translate(5 5)" fill="#F9F9FF"/>
<path fill-rule="evenodd" clip-rule="evenodd" d="M13.75 12.5C13.75 11.837 14.0134 11.2011 14.4822 10.7322C14.9511 10.2634 15.587 10 16.25 10H30C30.663 10 31.2989 10.2634 31.7678 10.7322C32.2366 11.2011 32.5 11.837 32.5 12.5V21.25C32.5 21.913 32.2366 22.5489 31.7678 23.0178C31.2989 23.4866 30.663 23.75 30 23.75H27.5V18.75C27.5 17.7554 27.1049 16.8016 26.4017 16.0983C25.6984 15.3951 24.7446 15 23.75 15H13.75V12.5Z" fill="#00438A"/>
<path fill-rule="evenodd" clip-rule="evenodd" d="M7.5 18.75C7.5 18.087 7.76339 17.4511 8.23223 16.9822C8.70107 16.5134 9.33696 16.25 10 16.25H23.75C24.413 16.25 25.0489 16.5134 25.5178 16.9822C25.9866 17.4511 26.25 18.087 26.25 18.75V27.5C26.25 28.163 25.9866 28.7989 25.5178 29.2678C25.0489 29.7366 24.413 30 23.75 30H10C9.33696 30 8.70107 29.7366 8.23223 29.2678C7.76339 28.7989 7.5 28.163 7.5 27.5V18.75ZM16.875 20C16.0462 20 15.2513 20.3292 14.6653 20.9153C14.0792 21.5013 13.75 22.2962 13.75 23.125C13.75 23.9538 14.0792 24.7487 14.6653 25.3347C15.2513 25.9208 16.0462 26.25 16.875 26.25C17.7038 26.25 18.4987 25.9208 19.0847 25.3347C19.6708 24.7487 20 23.9538 20 23.125C20 22.2962 19.6708 21.5013 19.0847 20.9153C18.4987 20.3292 17.7038 20 16.875 20Z" fill="#00438A"/>
<path d="M18.125 23.125C18.125 23.4565 17.9933 23.7745 17.7589 24.0089C17.5245 24.2433 17.2065 24.375 16.875 24.375C16.5435 24.375 16.2255 24.2433 15.9911 24.0089C15.7567 23.7745 15.625 23.4565 15.625 23.125C15.625 22.7935 15.7567 22.4755 15.9911 22.2411C16.2255 22.0067 16.5435 21.875 16.875 21.875C17.2065 21.875 17.5245 22.0067 17.7589 22.2411C17.9933 22.4755 18.125 22.7935 18.125 23.125Z" fill="#00438A"/>
</svg>
