<svg width="40" height="40" viewBox="0 0 40 40" fill="none" xmlns="http://www.w3.org/2000/svg">
<rect width="40" height="40" rx="15" fill="#F9F9FF"/>
<g clip-path="url(#clip0_1066_438)">
<rect width="30" height="30" transform="translate(5 5)" fill="#F9F9FF"/>
<path d="M5 14.375C4.99975 16.545 5.75224 18.6478 7.12916 20.3249C8.50609 22.0021 10.4222 23.1496 12.5506 23.5719C12.6732 22.2288 13.0179 20.9153 13.5706 19.685C11.9281 19.13 10.8725 17.87 10.625 16.0813H9.6875V15.2825H10.5613V14.4688C10.56 14.3813 10.5625 14.2969 10.5687 14.2156H9.6875V13.415H10.6456C11.0675 11.075 12.8994 9.68752 15.6519 9.68752C16.2444 9.68752 16.7581 9.74564 17.1875 9.84689V11.2213C16.6859 11.1104 16.173 11.0588 15.6594 11.0675C13.9362 11.0675 12.7756 11.9413 12.4081 13.415H16.0025V14.2156H12.29C12.285 14.3031 12.2831 14.395 12.2844 14.4913V15.2825H16.0025V16.0831H12.3688C12.59 17.2119 13.2463 18.0144 14.2531 18.3875C15.2404 16.7524 16.5981 15.3723 18.2168 14.3584C19.8355 13.3445 21.6699 12.7253 23.5719 12.5506C23.112 10.2735 21.8234 8.24802 19.9556 6.8666C18.0878 5.48519 15.7738 4.84615 13.4618 5.07327C11.1498 5.30038 9.00437 6.37749 7.44109 8.09595C5.87781 9.8144 5.00794 12.0519 5 14.375ZM35 24.6875C35 27.4226 33.9135 30.0456 31.9795 31.9796C30.0456 33.9135 27.4225 35 24.6875 35C21.9525 35 19.3294 33.9135 17.3955 31.9796C15.4615 30.0456 14.375 27.4226 14.375 24.6875C14.375 21.9525 15.4615 19.3294 17.3955 17.3955C19.3294 15.4615 21.9525 14.375 24.6875 14.375C27.4225 14.375 30.0456 15.4615 31.9795 17.3955C33.9135 19.3294 35 21.9525 35 24.6875ZM20.4688 27.1663C20.5981 28.7319 21.8675 29.9506 24.1512 30.095V31.25H25.1637V30.0875C27.5244 29.9263 28.9062 28.7 28.9062 26.9188C28.9062 25.2969 27.8506 24.4625 25.9625 24.0313L25.1637 23.8438V20.7013C26.1762 20.8138 26.8213 21.3519 26.975 22.0981H28.7525C28.6213 20.5906 27.2919 19.4113 25.1637 19.2819V18.125H24.1512V19.3044C22.1337 19.4975 20.7613 20.6769 20.7613 22.3456C20.7613 23.8213 21.7812 24.7606 23.48 25.145L24.1512 25.3044V28.6419C23.1125 28.4919 22.4263 27.9369 22.2706 27.1663H20.4688ZM24.1437 23.6131C23.1462 23.3881 22.6063 22.9306 22.6063 22.2406C22.6063 21.4719 23.1894 20.8925 24.1512 20.7238V23.6113H24.1419L24.1437 23.6131ZM25.31 25.5706C26.5194 25.8425 27.0781 26.2831 27.0781 27.0631C27.0781 27.9519 26.3844 28.5631 25.1656 28.6756V25.5369L25.31 25.5706Z" fill="#00438A"/>
</g>
<defs>
<clipPath id="clip0_1066_438">
<rect width="30" height="30" fill="white" transform="translate(5 5)"/>
</clipPath>
</defs>
</svg>
