<svg width="40" height="40" viewBox="0 0 40 40" fill="none" xmlns="http://www.w3.org/2000/svg">
<rect width="40" height="40" rx="15" fill="#F9F9FF"/>
<rect width="30" height="30" transform="translate(5 5)" fill="#F9F9FF"/>
<path d="M32.1875 28.2793V33.125C32.1875 33.3736 32.0887 33.6121 31.9129 33.7879C31.7371 33.9637 31.4986 34.0625 31.25 34.0625C31.0014 34.0625 30.7629 33.9637 30.5871 33.7879C30.4113 33.6121 30.3125 33.3736 30.3125 33.125V28.2793C30.3081 27.076 30.0562 25.8864 29.5723 24.7846C29.0885 23.6829 28.3831 22.6924 27.5 21.875V28.7129C27.4998 28.9146 27.4346 29.111 27.3139 29.2727C27.1933 29.4344 27.0237 29.5529 26.8304 29.6105C26.637 29.6682 26.4303 29.6619 26.2408 29.5927C26.0513 29.5234 25.8891 29.3949 25.7785 29.2262L24.527 27.3148C24.5176 27.3008 24.5082 27.2856 24.5 27.2703C24.3162 26.9457 24.0109 26.7074 23.6514 26.6078C23.2918 26.5083 22.9074 26.5556 22.5828 26.7395C22.2582 26.9233 22.0199 27.2286 21.9203 27.5881C21.8208 27.9476 21.8681 28.332 22.052 28.6566L24.6453 32.6164C24.7814 32.8245 24.8293 33.0781 24.7785 33.3215C24.7276 33.5649 24.5821 33.7781 24.374 33.9143C24.1659 34.0504 23.9123 34.0983 23.6689 34.0474C23.4255 33.9965 23.2123 33.8511 23.0762 33.643L20.4676 29.6586L20.4395 29.6141C20.3949 29.5367 20.3539 29.4582 20.3164 29.3797H11.5625C11.3139 29.3797 11.0754 29.2809 10.8996 29.1051C10.7238 28.9293 10.625 28.6908 10.625 28.4422V16.25C10.625 15.7527 10.8225 15.2758 11.1742 14.9242C11.5258 14.5725 12.0027 14.375 12.5 14.375H18.125V20C18.125 20.2486 18.2238 20.4871 18.3996 20.6629C18.5754 20.8387 18.8139 20.9375 19.0625 20.9375C19.3111 20.9375 19.5496 20.8387 19.7254 20.6629C19.9012 20.4871 20 20.2486 20 20V14.375H25.625C26.1223 14.375 26.5992 14.5725 26.9508 14.9242C27.3025 15.2758 27.5 15.7527 27.5 16.25V19.4867C28.9389 20.4591 30.1183 21.7686 30.9353 23.3011C31.7523 24.8336 32.1822 26.5426 32.1875 28.2793ZM20 9.1379L22.1492 11.2883C22.3251 11.4642 22.5637 11.563 22.8125 11.563C23.0613 11.563 23.2999 11.4642 23.4758 11.2883C23.6517 11.1124 23.7505 10.8738 23.7505 10.625C23.7505 10.3762 23.6517 10.1376 23.4758 9.96172L19.7258 6.21172C19.6387 6.12456 19.5353 6.05541 19.4215 6.00823C19.3077 5.96105 19.1857 5.93677 19.0625 5.93677C18.9393 5.93677 18.8173 5.96105 18.7035 6.00823C18.5897 6.05541 18.4863 6.12456 18.3992 6.21172L14.6492 9.96172C14.4733 10.1376 14.3745 10.3762 14.3745 10.625C14.3745 10.8738 14.4733 11.1124 14.6492 11.2883C14.8251 11.4642 15.0637 11.563 15.3125 11.563C15.5613 11.563 15.7999 11.4642 15.9758 11.2883L18.125 9.1379V14.375H20V9.1379Z" fill="#00438A"/>
</svg>
