<svg width="40" height="40" viewBox="0 0 40 40" fill="none" xmlns="http://www.w3.org/2000/svg">
<g clip-path="url(#clip0_1071_1868)">
<mask id="mask0_1071_1868" style="mask-type:luminance" maskUnits="userSpaceOnUse" x="0" y="0" width="40" height="40">
<path d="M0 0H40V40H0V0Z" fill="white"/>
<path fill-rule="evenodd" clip-rule="evenodd" d="M27.7338 15.7416C28.0473 15.4805 28.4515 15.3546 28.8577 15.3916C29.2639 15.4285 29.6388 15.6252 29.9 15.9385L33.1046 19.7846C33.3543 20.0993 33.471 20.499 33.4298 20.8985C33.3886 21.2981 33.1929 21.6656 32.8843 21.9228C32.5758 22.1799 32.1789 22.3061 31.7785 22.2746C31.3782 22.243 31.006 22.0561 30.7415 21.7539L27.5354 17.9077C27.2744 17.5943 27.1485 17.1901 27.1854 16.7839C27.2223 16.3777 27.419 16.0028 27.7323 15.7416" fill="black"/>
<path fill-rule="evenodd" clip-rule="evenodd" d="M27.7338 25.7969C27.4203 25.5359 27.2233 25.1611 27.1861 24.7549C27.1489 24.3487 27.2745 23.9444 27.5354 23.6308L30.7415 19.7846C30.869 19.6239 31.0274 19.4903 31.2073 19.3917C31.3872 19.2931 31.585 19.2315 31.789 19.2105C31.9931 19.1895 32.1993 19.2095 32.3955 19.2693C32.5917 19.3292 32.774 19.4276 32.9316 19.559C33.0892 19.6903 33.2189 19.8518 33.3132 20.034C33.4074 20.2162 33.4643 20.4155 33.4804 20.62C33.4965 20.8245 33.4716 21.0301 33.407 21.2249C33.3425 21.4196 33.2397 21.5994 33.1046 21.7538L29.9 25.6C29.6388 25.9132 29.2639 26.11 28.8577 26.1469C28.4515 26.1838 28.0472 26.0579 27.7338 25.7969Z" fill="black"/>
<path fill-rule="evenodd" clip-rule="evenodd" d="M31.5384 20.7692C31.5384 21.1773 31.3763 21.5686 31.0878 21.8571C30.7993 22.1456 30.408 22.3077 29.9999 22.3077H19.9999C19.5919 22.3077 19.2006 22.1456 18.9121 21.8571C18.6236 21.5686 18.4615 21.1773 18.4615 20.7692C18.4615 20.3612 18.6236 19.9699 18.9121 19.6814C19.2006 19.3929 19.5919 19.2308 19.9999 19.2308H29.9999C30.408 19.2308 30.7993 19.3929 31.0878 19.6814C31.3763 19.9699 31.5384 20.3612 31.5384 20.7692ZM9.23071 10C9.23071 9.59198 9.3928 9.20067 9.68132 8.91215C9.96984 8.62364 10.3611 8.46155 10.7692 8.46155H24.6153C25.0233 8.46155 25.4147 8.62364 25.7032 8.91215C25.9917 9.20067 26.1538 9.59198 26.1538 10C26.1538 10.408 25.9917 10.7993 25.7032 11.0879C25.4147 11.3764 25.0233 11.5385 24.6153 11.5385H10.7692C10.3611 11.5385 9.96984 11.3764 9.68132 11.0879C9.3928 10.7993 9.23071 10.408 9.23071 10ZM9.23071 31.5385C9.23071 31.1305 9.3928 30.7391 9.68132 30.4506C9.96984 30.1621 10.3611 30 10.7692 30H24.6153C25.0233 30 25.4147 30.1621 25.7032 30.4506C25.9917 30.7391 26.1538 31.1305 26.1538 31.5385C26.1538 31.9465 25.9917 32.3378 25.7032 32.6263C25.4147 32.9149 25.0233 33.0769 24.6153 33.0769H10.7692C10.3611 33.0769 9.96984 32.9149 9.68132 32.6263C9.3928 32.3378 9.23071 31.9465 9.23071 31.5385Z" fill="black"/>
<path fill-rule="evenodd" clip-rule="evenodd" d="M24.6153 8.46155C25.0234 8.46155 25.4147 8.62364 25.7032 8.91215C25.9917 9.20067 26.1538 9.59198 26.1538 10V16.1539C26.1538 16.5619 25.9917 16.9532 25.7032 17.2417C25.4147 17.5302 25.0234 17.6923 24.6153 17.6923C24.2073 17.6923 23.816 17.5302 23.5275 17.2417C23.239 16.9532 23.0769 16.5619 23.0769 16.1539V10C23.0769 9.59198 23.239 9.20067 23.5275 8.91215C23.816 8.62364 24.2073 8.46155 24.6153 8.46155ZM24.6153 23.8462C25.0234 23.8462 25.4147 24.0083 25.7032 24.2968C25.9917 24.5853 26.1538 24.9766 26.1538 25.3846V31.5385C26.1538 31.9465 25.9917 32.3378 25.7032 32.6263C25.4147 32.9149 25.0234 33.0769 24.6153 33.0769C24.2073 33.0769 23.816 32.9149 23.5275 32.6263C23.239 32.3378 23.0769 31.9465 23.0769 31.5385V25.3846C23.0769 24.9766 23.239 24.5853 23.5275 24.2968C23.816 24.0083 24.2073 23.8462 24.6153 23.8462ZM10.7692 8.46155C11.1772 8.46155 11.5685 8.62364 11.857 8.91215C12.1455 9.20067 12.3076 9.59198 12.3076 10V31.5385C12.3076 31.9465 12.1455 32.3378 11.857 32.6263C11.5685 32.9149 11.1772 33.0769 10.7692 33.0769C10.3611 33.0769 9.96984 32.9149 9.68132 32.6263C9.3928 32.3378 9.23071 31.9465 9.23071 31.5385V10C9.23071 9.59198 9.3928 9.20067 9.68132 8.91215C9.96984 8.62364 10.3611 8.46155 10.7692 8.46155Z" fill="black"/>
</mask>
<g mask="url(#mask0_1071_1868)">
<path d="M20 40C31.0457 40 40 31.0457 40 20C40 8.9543 31.0457 0 20 0C8.9543 0 0 8.9543 0 20C0 31.0457 8.9543 40 20 40Z" fill="#AAC7FF"/>
</g>
</g>
<defs>
<clipPath id="clip0_1071_1868">
<rect width="40" height="40" fill="white"/>
</clipPath>
</defs>
</svg>
