<svg width="154" height="107" viewBox="0 0 154 107" fill="none" xmlns="http://www.w3.org/2000/svg">
<path d="M146.458 60.7813H39.6667C37.7356 60.7813 35.8835 60.0142 34.518 58.6487C33.1525 57.2831 32.3854 55.4311 32.3854 53.5C32.3854 51.5689 33.1525 49.7169 34.518 48.3514C35.8835 46.9859 37.7356 46.2188 39.6667 46.2188H146.458C148.389 46.2188 150.242 46.9859 151.607 48.3514C152.973 49.7169 153.74 51.5689 153.74 53.5C153.74 55.4311 152.973 57.2831 151.607 58.6487C150.242 60.0142 148.389 60.7813 146.458 60.7813ZM146.458 17.0938H39.6667C37.7356 17.0938 35.8835 16.3266 34.518 14.9611C33.1525 13.5956 32.3854 11.7436 32.3854 9.81252C32.3854 7.88141 33.1525 6.02939 34.518 4.66389C35.8835 3.29839 37.7356 2.53126 39.6667 2.53126H146.458C148.389 2.53126 150.242 3.29839 151.607 4.66389C152.973 6.02939 153.74 7.88141 153.74 9.81252C153.74 11.7436 152.973 13.5956 151.607 14.9611C150.242 16.3266 148.389 17.0938 146.458 17.0938ZM146.458 104.469H39.6667C37.7356 104.469 35.8835 103.702 34.518 102.336C33.1525 100.971 32.3854 99.1187 32.3854 97.1875C32.3854 95.2564 33.1525 93.4044 34.518 92.0389C35.8835 90.6734 37.7356 89.9063 39.6667 89.9063H146.458C148.389 89.9063 150.242 90.6734 151.607 92.0389C152.973 93.4044 153.74 95.2564 153.74 97.1875C153.74 99.1187 152.973 100.971 151.607 102.336C150.242 103.702 148.389 104.469 146.458 104.469ZM10.5417 19.5209C9.27944 19.5363 8.02633 19.3055 6.85248 18.8413C5.69474 18.2743 4.6174 17.556 3.64873 16.7054C2.74895 15.7983 2.03708 14.7224 1.55395 13.5396C1.07082 12.3568 0.825927 11.0902 0.833314 9.81252C0.869074 7.24207 1.87469 4.78004 3.64873 2.9196C4.55427 2.01336 5.64802 1.31734 6.85248 0.880844C9.21609 -0.0901643 11.8672 -0.0901643 14.2308 0.880844C15.4225 1.34291 16.5113 2.03574 17.4346 2.9196C19.2086 4.78004 20.2142 7.24207 20.25 9.81252C20.2574 11.0902 20.0125 12.3568 19.5294 13.5396C19.0462 14.7224 18.3344 15.7983 17.4346 16.7054C16.4659 17.556 15.3886 18.2743 14.2308 18.8413C13.057 19.3055 11.8039 19.5363 10.5417 19.5209ZM10.5417 63.2084C9.27299 63.193 8.01964 62.9292 6.85248 62.4317C5.68025 61.9319 4.59796 61.2432 3.64873 60.393C2.74895 59.4858 2.03708 58.41 1.55395 57.2271C1.07082 56.0443 0.825927 54.7777 0.833314 53.5C0.869074 50.9296 1.87469 48.4676 3.64873 46.6071C4.59796 45.7569 5.68025 45.0681 6.85248 44.5684C8.60991 43.7535 10.5709 43.483 12.4833 43.7917L14.2308 44.3742L15.9783 45.2479C16.4821 45.6127 16.9681 46.0015 17.4346 46.4129C19.2546 48.3221 20.2638 50.8624 20.25 53.5C20.25 56.0748 19.2271 58.5442 17.4065 60.3649C15.5858 62.1855 13.1165 63.2084 10.5417 63.2084ZM10.5417 106.896C9.27944 106.911 8.02633 106.681 6.85248 106.216C5.69474 105.649 4.6174 104.931 3.64873 104.08C2.7985 103.131 2.10977 102.049 1.60998 100.877C1.09636 99.7146 0.831055 98.4581 0.831055 97.1875C0.831055 95.917 1.09636 94.6605 1.60998 93.4984C2.10977 92.3261 2.7985 91.2439 3.64873 90.2946C5.01396 88.9475 6.7476 88.035 8.63092 87.6721C10.5142 87.3093 12.4628 87.5124 14.2308 88.2559C15.4225 88.7179 16.5113 89.4108 17.4346 90.2946C18.2848 91.2439 18.9735 92.3261 19.4733 93.4984C19.9869 94.6605 20.2522 95.917 20.2522 97.1875C20.2522 98.4581 19.9869 99.7146 19.4733 100.877C18.9735 102.049 18.2848 103.131 17.4346 104.08C16.5274 104.98 15.4516 105.692 14.2687 106.175C13.0859 106.658 11.8193 106.903 10.5417 106.896Z" fill="#ECEDF6"/>
</svg>
