<svg width="40" height="40" viewBox="0 0 40 40" fill="none" xmlns="http://www.w3.org/2000/svg">
<rect width="40" height="40" rx="15" fill="#F9F9FF"/>
<path d="M13.75 8.75H11.25C10.587 8.75 9.95107 9.01339 9.48223 9.48223C9.01339 9.95107 8.75 10.587 8.75 11.25V13.75M26.25 8.75H28.75C29.413 8.75 30.0489 9.01339 30.5178 9.48223C30.9866 9.95107 31.25 10.587 31.25 11.25V13.75M25 15V17.5M15 15V17.5M16.25 25C16.25 25 17.5 26.25 20 26.25C22.5 26.25 23.75 25 23.75 25M20 15V21.25H18.75M13.75 31.25H11.25C10.587 31.25 9.95107 30.9866 9.48223 30.5178C9.01339 30.0489 8.75 29.413 8.75 28.75V26.25M26.25 31.25H28.75C29.413 31.25 30.0489 30.9866 30.5178 30.5178C30.9866 30.0489 31.25 29.413 31.25 28.75V26.25" stroke="#00438A" stroke-width="2" stroke-linecap="round" stroke-linejoin="round"/>
</svg>
