<svg width="40" height="40" viewBox="0 0 40 40" fill="none" xmlns="http://www.w3.org/2000/svg">
<rect width="40" height="40" rx="15" fill="#F9F9FF"/>
<path d="M16.25 18.75C16.25 17.7554 16.6451 16.8016 17.3483 16.0983C18.0516 15.3951 19.0054 15 20 15C20.9946 15 21.9484 15.3951 22.6517 16.0983C23.3549 16.8016 23.75 17.7554 23.75 18.75C23.75 20.8212 24.515 22.6025 25 23.75" stroke="#00438A" stroke-width="2" stroke-linecap="round" stroke-linejoin="round"/>
<path d="M20 18.75V20.9375C19.9987 22.325 20.8263 23.695 21.25 25M16.25 22.8125C16.335 23.5375 16.6975 24.295 16.875 25M10 15V12.5C10 11.837 10.2634 11.2011 10.7322 10.7322C11.2011 10.2634 11.837 10 12.5 10H15M10 25V27.5C10 28.163 10.2634 28.7989 10.7322 29.2678C11.2011 29.7366 11.837 30 12.5 30H15M25 10H27.5C28.163 10 28.7989 10.2634 29.2678 10.7322C29.7366 11.2011 30 11.837 30 12.5V15M25 30H27.5C28.163 30 28.7989 29.7366 29.2678 29.2678C29.7366 28.7989 30 28.163 30 27.5V25" stroke="#00438A" stroke-width="2" stroke-linecap="round" stroke-linejoin="round"/>
</svg>
