<svg width="40" height="40" viewBox="0 0 40 40" fill="none" xmlns="http://www.w3.org/2000/svg">
<rect width="40" height="40" rx="15" fill="#F9F9FF"/>
<path d="M14.0065 8.05568C14.1101 7.7865 14.2931 7.55512 14.531 7.39213C14.769 7.22914 15.0509 7.1422 15.3393 7.14283H24.4636C25.4568 7.14283 26.1458 8.13068 25.805 9.06283L23.5615 15.1785H28.744C30.0061 15.1785 30.6479 16.6957 29.7693 17.6021L15.4829 32.3246C14.2615 33.5835 12.155 32.45 12.5333 30.7368L14.3118 22.6785H11.3397C11.0059 22.6785 10.6772 22.5971 10.3819 22.4414C10.0867 22.2857 9.83387 22.0604 9.64531 21.785C9.45674 21.5096 9.33814 21.1924 9.29976 20.8608C9.26138 20.5292 9.30438 20.1933 9.42504 19.8821L14.0065 8.05568Z" fill="#00438A"/>
</svg>
