<svg width="40" height="40" viewBox="0 0 40 40" fill="none" xmlns="http://www.w3.org/2000/svg">
<rect width="40" height="40" rx="15" fill="#F9F9FF"/>
<path d="M32.5 28.2563C32.5 28.5049 32.4012 28.7434 32.2254 28.9192C32.0496 29.095 31.8111 29.1938 31.5625 29.1938H25.1875C24.9787 29.9724 24.5189 30.6603 23.8793 31.151C23.2397 31.6416 22.4561 31.9076 21.65 31.9076C20.8439 31.9076 20.0603 31.6416 19.4207 31.151C18.7811 30.6603 18.3213 29.9724 18.1125 29.1938H8.4375C8.18886 29.1938 7.9504 29.095 7.77459 28.9192C7.59877 28.7434 7.5 28.5049 7.5 28.2563C7.5 28.0076 7.59877 27.7692 7.77459 27.5933C7.9504 27.4175 8.18886 27.3188 8.4375 27.3188H18.1125C18.3213 26.5402 18.7811 25.8522 19.4207 25.3615C20.0603 24.8709 20.8439 24.6049 21.65 24.6049C22.4561 24.6049 23.2397 24.8709 23.8793 25.3615C24.5189 25.8522 24.9787 26.5402 25.1875 27.3188H31.5625C31.8111 27.3188 32.0496 27.4175 32.2254 27.5933C32.4012 27.7692 32.5 28.0076 32.5 28.2563ZM32.5 11.7438C32.5 11.9924 32.4012 12.2309 32.2254 12.4067C32.0496 12.5825 31.8111 12.6813 31.5625 12.6813H28.5C28.2912 13.4599 27.8314 14.1478 27.1918 14.6385C26.5522 15.1291 25.7686 15.3951 24.9625 15.3951C24.1564 15.3951 23.3728 15.1291 22.7332 14.6385C22.0936 14.1478 21.6338 13.4599 21.425 12.6813H8.4375C8.31439 12.6813 8.19248 12.657 8.07873 12.6099C7.96499 12.5628 7.86164 12.4937 7.77459 12.4067C7.68753 12.3196 7.61848 12.2163 7.57136 12.1025C7.52425 11.9888 7.5 11.8669 7.5 11.7438C7.5 11.6206 7.52425 11.4987 7.57136 11.385C7.61848 11.2712 7.68753 11.1679 7.77459 11.0808C7.86164 10.9938 7.96499 10.9247 8.07873 10.8776C8.19248 10.8305 8.31439 10.8063 8.4375 10.8063H21.425C21.6338 10.0277 22.0936 9.3397 22.7332 8.84904C23.3728 8.35838 24.1564 8.09244 24.9625 8.09244C25.7686 8.09244 26.5522 8.35838 27.1918 8.84904C27.8314 9.3397 28.2912 10.0277 28.5 10.8063H31.5625C31.6861 10.8046 31.8087 10.8277 31.9232 10.8742C32.0377 10.9207 32.1418 10.9897 32.2292 11.0771C32.3165 11.1645 32.3855 11.2685 32.4321 11.383C32.4786 11.4975 32.5017 11.6202 32.5 11.7438ZM32.5 19.9938C32.5017 20.1173 32.4786 20.24 32.4321 20.3545C32.3855 20.469 32.3165 20.573 32.2292 20.6604C32.1418 20.7478 32.0377 20.8168 31.9232 20.8633C31.8087 20.9098 31.6861 20.9329 31.5625 20.9313H16.9375C16.7287 21.7099 16.2689 22.3978 15.6293 22.8885C14.9897 23.3791 14.2061 23.6451 13.4 23.6451C12.5939 23.6451 11.8103 23.3791 11.1707 22.8885C10.5311 22.3978 10.0713 21.7099 9.8625 20.9313H8.4375C8.18886 20.9313 7.9504 20.8325 7.77459 20.6567C7.59877 20.4809 7.5 20.2424 7.5 19.9938C7.5 19.7451 7.59877 19.5067 7.77459 19.3308C7.9504 19.155 8.18886 19.0563 8.4375 19.0563H9.8625C10.0713 18.2777 10.5311 17.5897 11.1707 17.099C11.8103 16.6084 12.5939 16.3424 13.4 16.3424C14.2061 16.3424 14.9897 16.6084 15.6293 17.099C16.2689 17.5897 16.7287 18.2777 16.9375 19.0563H31.5625C31.8111 19.0563 32.0496 19.155 32.2254 19.3308C32.4012 19.5067 32.5 19.7451 32.5 19.9938Z" fill="#00438A"/>
</svg>
