<svg width="40" height="40" viewBox="0 0 40 40" fill="none" xmlns="http://www.w3.org/2000/svg">
<rect width="40" height="40" rx="15" fill="#F9F9FF"/>
<rect width="30" height="30" transform="translate(5 5)" fill="#F9F9FF"/>
<path d="M20 7.41071C22.7706 7.41071 25.4277 8.51131 27.3868 10.4704C29.3458 12.4295 30.4464 15.0866 30.4464 17.8571C30.4464 22.2714 27.3447 27.0821 21.2214 32.3407C20.881 32.6332 20.4469 32.7938 19.998 32.7934C19.5492 32.793 19.1153 32.6316 18.7754 32.3386L18.3704 31.9871C12.5182 26.8657 9.55359 22.1728 9.55359 17.8571C9.55359 15.0866 10.6542 12.4295 12.6133 10.4704C14.5724 8.51131 17.2295 7.41071 20 7.41071ZM20 13.8393C18.9344 13.8393 17.9125 14.2626 17.159 15.0161C16.4055 15.7696 15.9822 16.7915 15.9822 17.8571C15.9822 18.9227 16.4055 19.9447 17.159 20.6982C17.9125 21.4517 18.9344 21.875 20 21.875C21.0656 21.875 22.0876 21.4517 22.8411 20.6982C23.5946 19.9447 24.0179 18.9227 24.0179 17.8571C24.0179 16.7915 23.5946 15.7696 22.8411 15.0161C22.0876 14.2626 21.0656 13.8393 20 13.8393Z" fill="#00438A"/>
</svg>
