<svg width="40" height="40" viewBox="0 0 40 40" fill="none" xmlns="http://www.w3.org/2000/svg">
<rect width="40" height="40" rx="15" fill="#F9F9FF"/>
<path d="M31.25 28.75V11.25C31.25 9.875 30.125 8.75 28.75 8.75H11.25C9.875 8.75 8.75 9.875 8.75 11.25V28.75C8.75 30.125 9.875 31.25 11.25 31.25H28.75C30.125 31.25 31.25 30.125 31.25 28.75ZM16.125 22.475L18.75 25.6375L22.625 20.65C22.875 20.325 23.375 20.325 23.625 20.6625L28.0125 26.5125C28.0821 26.6054 28.1246 26.7158 28.135 26.8314C28.1454 26.947 28.1234 27.0632 28.0715 27.167C28.0196 27.2708 27.9398 27.3581 27.8411 27.4192C27.7423 27.4802 27.6286 27.5125 27.5125 27.5125H12.525C12 27.5125 11.7125 26.9125 12.0375 26.5L15.15 22.5C15.3875 22.175 15.8625 22.1625 16.125 22.475Z" fill="#00438A"/>
</svg>
