<svg width="40" height="40" viewBox="0 0 40 40" fill="none" xmlns="http://www.w3.org/2000/svg">
<rect width="40" height="40" rx="15" fill="#F9F9FF"/>
<mask id="mask0_1073_1934" style="mask-type:luminance" maskUnits="userSpaceOnUse" x="5" y="5" width="30" height="30">
<path d="M5 5H35V35H5V5Z" fill="white"/>
<path fill-rule="evenodd" clip-rule="evenodd" d="M9.90381 20C9.90381 22.6776 10.9675 25.2456 12.8609 27.139C14.7543 29.0324 17.3223 30.0961 20 30.0961C22.6776 30.0961 25.2456 29.0324 27.139 27.139C29.0324 25.2456 30.0961 22.6776 30.0961 20C30.0961 17.3223 29.0324 14.7543 27.139 12.8609C25.2456 10.9675 22.6776 9.90381 20 9.90381C17.3223 9.90381 14.7543 10.9675 12.8609 12.8609C10.9675 14.7543 9.90381 17.3223 9.90381 20ZM28.3653 20C28.3653 22.2186 27.484 24.3464 25.9152 25.9152C24.3464 27.484 22.2186 28.3653 20 28.3653C17.7813 28.3653 15.6536 27.484 14.0847 25.9152C12.5159 24.3464 11.6346 22.2186 11.6346 20C11.6346 17.7813 12.5159 15.6536 14.0847 14.0847C15.6536 12.5159 17.7813 11.6346 20 11.6346C22.2186 11.6346 24.3464 12.5159 25.9152 14.0847C27.484 15.6536 28.3653 17.7813 28.3653 20Z" fill="black"/>
<path fill-rule="evenodd" clip-rule="evenodd" d="M15.6731 19.9999C15.6731 25.2176 17.3935 29.5192 20 29.5192C22.6066 29.5192 24.3269 25.2176 24.3269 19.9999C24.3269 14.7823 22.6066 10.4807 20 10.4807C17.3935 10.4807 15.6731 14.7823 15.6731 19.9999ZM22.5962 19.9999C22.5962 24.3407 21.2173 27.7884 20 27.7884C18.7827 27.7884 17.4039 24.3407 17.4039 19.9999C17.4039 15.6592 18.7827 12.2115 20 12.2115C21.2173 12.2115 22.5962 15.6592 22.5962 19.9999Z" fill="black"/>
<path d="M12.6176 14.7695L13.7784 13.4865C13.8938 13.5911 14.0188 13.6938 14.1534 13.7945C15.6199 14.893 17.9611 15.5714 20.5169 15.5714C22.6988 15.5714 24.7319 15.0788 26.2065 14.2353C26.5626 14.0314 26.8776 13.8122 27.1515 13.5776L28.2753 14.8941C27.9169 15.2011 27.5138 15.4818 27.0661 15.7365C25.3169 16.738 22.9884 17.3011 20.5169 17.3011C17.6069 17.3011 14.9034 16.5188 13.1149 15.1791C12.9429 15.0504 12.777 14.9137 12.6176 14.7695ZM12.6176 25.2488L13.7784 26.5318C13.8938 26.4272 14.0188 26.3245 14.1534 26.2238C15.6199 25.1253 17.9611 24.4468 20.5169 24.4468C22.6988 24.4468 24.7319 24.9395 26.2065 25.783C26.5626 25.9868 26.8776 26.2061 27.1515 26.4407L28.2753 25.1241C27.8988 24.8071 27.494 24.5252 27.0661 24.2818C25.3169 23.2803 22.9884 22.7172 20.5169 22.7172C17.6069 22.7172 14.9034 23.4995 13.1149 24.8391C12.9429 24.9679 12.777 25.1046 12.6176 25.2488ZM10.4807 20.8653V19.1345H29.5192V20.8653H10.4807Z" fill="black"/>
</mask>
<g mask="url(#mask0_1073_1934)">
<path d="M20 35C28.2843 35 35 28.2843 35 20C35 11.7157 28.2843 5 20 5C11.7157 5 5 11.7157 5 20C5 28.2843 11.7157 35 20 35Z" fill="#00438A"/>
</g>
</svg>
