<svg width="40" height="40" viewBox="0 0 40 40" fill="none" xmlns="http://www.w3.org/2000/svg">
<rect width="40" height="40" rx="15" fill="#F9F9FF"/>
<path d="M27.5 15H26.25V12.5C26.25 9.05 23.45 6.25 20 6.25C16.55 6.25 13.75 9.05 13.75 12.5V15H12.5C11.125 15 10 16.125 10 17.5V30C10 31.375 11.125 32.5 12.5 32.5H27.5C28.875 32.5 30 31.375 30 30V17.5C30 16.125 28.875 15 27.5 15ZM20 26.25C18.625 26.25 17.5 25.125 17.5 23.75C17.5 22.375 18.625 21.25 20 21.25C21.375 21.25 22.5 22.375 22.5 23.75C22.5 25.125 21.375 26.25 20 26.25ZM23.875 15H16.125V12.5C16.125 10.3625 17.8625 8.625 20 8.625C22.1375 8.625 23.875 10.3625 23.875 12.5V15Z" fill="#00438A"/>
</svg>
