<svg width="40" height="40" viewBox="0 0 40 40" fill="none" xmlns="http://www.w3.org/2000/svg">
<rect width="40" height="40" rx="15" fill="#F9F9FF"/>
<rect width="30" height="30" transform="translate(5 5)" fill="#F9F9FF"/>
<path d="M15.4401 30.3025C15.984 30.9903 16.6771 31.5455 17.4671 31.9262C18.2571 32.3069 19.1232 32.5031 20.0001 32.5C20.877 32.5031 21.7431 32.3069 22.5331 31.9262C23.323 31.5455 24.0161 30.9903 24.5601 30.3025C21.5339 30.7121 18.4663 30.7121 15.4401 30.3025ZM28.4376 16.25V17.13C28.4376 18.1862 28.7376 19.2187 29.3026 20.0975L30.6876 22.2512C31.9513 24.2187 30.9863 26.8925 28.7876 27.5137C23.0422 29.1408 16.9579 29.1408 11.2126 27.5137C9.01383 26.8925 8.04883 24.2187 9.31258 22.2512L10.6976 20.0975C11.2641 19.2115 11.5647 18.1816 11.5638 17.13V16.25C11.5638 11.4175 15.3413 7.5 20.0001 7.5C24.6588 7.5 28.4376 11.4175 28.4376 16.25Z" fill="#00438A"/>
</svg>
