<svg width="30" height="30" viewBox="0 0 30 30" fill="none" xmlns="http://www.w3.org/2000/svg">
<path fill-rule="evenodd" clip-rule="evenodd" d="M30 15C30 23.2845 23.2845 30 15 30C6.7155 30 0 23.2845 0 15C0 6.7155 6.7155 0 15 0C23.2845 0 30 6.7155 30 15ZM19.5 10.5C19.5 11.6935 19.0259 12.8381 18.182 13.682C17.3381 14.5259 16.1935 15 15 15C13.8065 15 12.6619 14.5259 11.818 13.682C10.9741 12.8381 10.5 11.6935 10.5 10.5C10.5 9.30653 10.9741 8.16193 11.818 7.31802C12.6619 6.47411 13.8065 6 15 6C16.1935 6 17.3381 6.47411 18.182 7.31802C19.0259 8.16193 19.5 9.30653 19.5 10.5ZM15 27.75C17.5744 27.7541 20.0892 26.9752 22.2105 25.5165C23.1165 24.894 23.5035 23.709 22.9755 22.7445C21.885 20.745 19.635 19.5 15 19.5C10.365 19.5 8.115 20.745 7.023 22.7445C6.4965 23.709 6.8835 24.894 7.7895 25.5165C9.9108 26.9752 12.4256 27.7541 15 27.75Z" fill="#212529"/>
</svg>
