<svg width="40" height="40" viewBox="0 0 40 40" fill="none" xmlns="http://www.w3.org/2000/svg">
<rect width="40" height="40" rx="15" fill="#F9F9FF"/>
<path d="M19.0625 12.5H16.25C13.8925 12.5 12.715 12.5 11.9825 13.2325C11.25 13.965 11.25 15.1425 11.25 17.5V25.3125H28.75V17.5C28.75 15.1425 28.75 13.965 28.0175 13.2325C27.285 12.5 26.1075 12.5 23.75 12.5H20.9375V18.7162L21.7875 17.7238C21.8676 17.6302 21.9654 17.5533 22.0752 17.4975C22.185 17.4417 22.3047 17.4081 22.4275 17.3986C22.5503 17.3891 22.6738 17.4038 22.7909 17.442C22.908 17.4803 23.0164 17.5411 23.11 17.6213C23.2036 17.7014 23.2804 17.7991 23.3362 17.9089C23.392 18.0187 23.4256 18.1385 23.4352 18.2613C23.4447 18.3841 23.4299 18.5076 23.3917 18.6247C23.3535 18.7418 23.2926 18.8502 23.2125 18.9438L20.7125 21.86C20.6245 21.9629 20.5152 22.0455 20.3922 22.1022C20.2692 22.1589 20.1354 22.1882 20 22.1882C19.8646 22.1882 19.7308 22.1589 19.6078 22.1022C19.4848 22.0455 19.3755 21.9629 19.2875 21.86L16.7875 18.9438C16.7074 18.8502 16.6465 18.7418 16.6083 18.6247C16.5701 18.5076 16.5553 18.3841 16.5649 18.2613C16.5744 18.1385 16.608 18.0187 16.6638 17.9089C16.7196 17.7991 16.7964 17.7014 16.89 17.6213C16.9836 17.5411 17.092 17.4803 17.2091 17.442C17.3262 17.4038 17.4497 17.3891 17.5725 17.3986C17.6953 17.4081 17.815 17.4417 17.9248 17.4975C18.0346 17.5533 18.1324 17.6302 18.2125 17.7238L19.0625 18.7162V12.5ZM11.2875 27.1875H28.7125C28.6475 28.175 28.4763 28.8088 28.0175 29.2675C27.285 30 26.1075 30 23.75 30H16.25C13.8925 30 12.715 30 11.9825 29.2675C11.5237 28.8088 11.3513 28.1763 11.2875 27.1875Z" fill="#00438A"/>
<path d="M12.3613 8.75H27.6376C30.3251 8.75 32.5001 11 32.5001 13.775C32.5001 15.3875 31.7663 16.8212 30.6251 17.7413V17.3888C30.6251 16.3063 30.6251 15.3137 30.5163 14.5075C30.3976 13.6188 30.1163 12.6788 29.3438 11.9075C28.5713 11.1337 27.6313 10.8525 26.7438 10.7325C25.9363 10.625 24.9438 10.625 23.8613 10.625H16.1376C15.0563 10.625 14.0638 10.625 13.2576 10.7337C12.3688 10.8525 11.4288 11.1338 10.6576 11.9062C9.88382 12.6788 9.60257 13.6188 9.48257 14.5062C9.37507 15.3138 9.37507 16.3063 9.37507 17.3888V17.7413C8.78575 17.2625 8.31136 16.6576 7.98685 15.9712C7.66235 15.2848 7.496 14.5343 7.50007 13.775C7.50007 11 9.67632 8.75 12.3613 8.75Z" fill="#00438A"/>
</svg>
