<svg width="40" height="40" viewBox="0 0 40 40" fill="none" xmlns="http://www.w3.org/2000/svg">
<rect width="40" height="40" rx="15" fill="#F9F9FF"/>
<path d="M16.255 9.27002C15.54 8.25752 14.55 7.80127 13.5 7.81252C12.5038 7.82252 11.5338 8.24877 10.7238 8.81627C9.89759 9.39792 9.19312 10.1355 8.65001 10.9875C8.13751 11.7988 7.76751 12.7575 7.81751 13.6938C8.05876 18.1975 10.5925 23.01 14.1513 26.5713C17.7075 30.1288 22.4563 32.6013 27.2513 32.1288C28.1913 32.0363 29.08 31.5575 29.8063 30.9475C30.5574 30.3113 31.1712 29.5287 31.61 28.6475C32.035 27.7825 32.2888 26.785 32.1488 25.8138C32.0038 24.8013 31.4375 23.8963 30.3963 23.2963C30.1805 23.1711 29.9672 23.0419 29.7563 22.9088C29.5688 22.7925 29.3688 22.6663 29.1263 22.5213C28.631 22.2159 28.1083 21.9573 27.565 21.7488C27.0063 21.545 26.3675 21.4113 25.7025 21.5025C25.0138 21.5975 24.3738 21.9225 23.82 22.505C23.3938 22.955 22.7663 23.095 21.8838 22.84C20.9863 22.58 19.9763 21.935 19.0988 21.0625C18.2213 20.1925 17.5575 19.175 17.2738 18.2563C16.9938 17.3463 17.1175 16.6775 17.555 16.2163C18.1463 15.5938 18.4613 14.9013 18.5275 14.1688C18.5925 13.4563 18.415 12.7863 18.1613 12.2013C17.7813 11.3275 17.1363 10.4588 16.6313 9.78127C16.5043 9.61189 16.3793 9.44104 16.2563 9.26877" fill="#00438A"/>
</svg>
