<svg width="40" height="40" viewBox="0 0 40 40" fill="none" xmlns="http://www.w3.org/2000/svg">
<rect width="40" height="40" rx="15" fill="#F9F9FF"/>
<rect width="30" height="30" transform="translate(5 5)" fill="#F9F9FF"/>
<path d="M22.5 21.25C22.8062 21.25 23.1017 21.3624 23.3305 21.5659C23.5593 21.7693 23.7054 22.0497 23.7413 22.3538L23.75 22.5V30C23.7496 30.3186 23.6277 30.625 23.4089 30.8567C23.1902 31.0884 22.8913 31.2278 22.5733 31.2465C22.2552 31.2651 21.942 31.1617 21.6977 30.9572C21.4534 30.7527 21.2964 30.4626 21.2587 30.1463L21.25 30V22.5C21.25 22.1685 21.3817 21.8505 21.6161 21.6161C21.8505 21.3817 22.1685 21.25 22.5 21.25ZM26.25 26.875C26.5815 26.875 26.8995 27.0067 27.1339 27.2411C27.3683 27.4755 27.5 27.7935 27.5 28.125V30C27.5 30.3315 27.3683 30.6495 27.1339 30.8839C26.8995 31.1183 26.5815 31.25 26.25 31.25C25.9185 31.25 25.6005 31.1183 25.3661 30.8839C25.1317 30.6495 25 30.3315 25 30V28.125C25 27.7935 25.1317 27.4755 25.3661 27.2411C25.6005 27.0067 25.9185 26.875 26.25 26.875ZM30 21.25C30.3062 21.25 30.6017 21.3624 30.8305 21.5659C31.0593 21.7693 31.2054 22.0497 31.2412 22.3538L31.25 22.5V30C31.2496 30.3186 31.1277 30.625 30.9089 30.8567C30.6902 31.0884 30.3913 31.2278 30.0733 31.2465C29.7552 31.2651 29.442 31.1617 29.1977 30.9572C28.9534 30.7527 28.7964 30.4626 28.7588 30.1463L28.75 30V22.5C28.75 22.1685 28.8817 21.8505 29.1161 21.6161C29.3505 21.3817 29.6685 21.25 30 21.25ZM16.25 21.25C16.913 21.25 17.5489 21.5134 18.0178 21.9822C18.4866 22.4511 18.75 23.087 18.75 23.75V28.75C18.75 29.413 18.4866 30.0489 18.0178 30.5178C17.5489 30.9866 16.913 31.25 16.25 31.25H11.25C10.587 31.25 9.95107 30.9866 9.48223 30.5178C9.01339 30.0489 8.75 29.413 8.75 28.75V23.75C8.75 23.087 9.01339 22.4511 9.48223 21.9822C9.95107 21.5134 10.587 21.25 11.25 21.25H16.25ZM26.25 21.25C26.5562 21.25 26.8517 21.3624 27.0805 21.5659C27.3093 21.7693 27.4554 22.0497 27.4912 22.3538L27.5 22.5V24.375C27.4996 24.6936 27.3777 25 27.1589 25.2317C26.9402 25.4634 26.6413 25.6028 26.3233 25.6215C26.0052 25.6401 25.692 25.5367 25.4477 25.3322C25.2034 25.1277 25.0464 24.8376 25.0088 24.5212L25 24.375V22.5C25 22.1685 25.1317 21.8505 25.3661 21.6161C25.6005 21.3817 25.9185 21.25 26.25 21.25ZM16.25 8.75C16.913 8.75 17.5489 9.01339 18.0178 9.48223C18.4866 9.95107 18.75 10.587 18.75 11.25V16.25C18.75 16.913 18.4866 17.5489 18.0178 18.0178C17.5489 18.4866 16.913 18.75 16.25 18.75H11.25C10.587 18.75 9.95107 18.4866 9.48223 18.0178C9.01339 17.5489 8.75 16.913 8.75 16.25V11.25C8.75 10.587 9.01339 9.95107 9.48223 9.48223C9.95107 9.01339 10.587 8.75 11.25 8.75H16.25ZM28.75 8.75C29.413 8.75 30.0489 9.01339 30.5178 9.48223C30.9866 9.95107 31.25 10.587 31.25 11.25V16.25C31.25 16.913 30.9866 17.5489 30.5178 18.0178C30.0489 18.4866 29.413 18.75 28.75 18.75H23.75C23.087 18.75 22.4511 18.4866 21.9822 18.0178C21.5134 17.5489 21.25 16.913 21.25 16.25V11.25C21.25 10.587 21.5134 9.95107 21.9822 9.48223C22.4511 9.01339 23.087 8.75 23.75 8.75H28.75Z" fill="#00438A"/>
</svg>
