<svg width="40" height="40" viewBox="0 0 40 40" fill="none" xmlns="http://www.w3.org/2000/svg">
<rect width="40" height="40" rx="15" fill="#F9F9FF"/>
<path d="M31.09 11.3125C30.6553 10.7112 30.042 10.2624 29.3375 10.03L23.3362 8.03C21.16 7.32399 18.8162 7.32399 16.64 8.03L10.64 10.03C9.93859 10.264 9.32857 10.7127 8.89621 11.3125C8.45994 11.9149 8.22542 12.6399 8.22621 13.3837V19.8312C8.21707 21.6338 8.66831 23.4089 9.53718 24.9882C10.4061 26.5676 11.6638 27.899 13.1912 28.8562L18.1337 31.9637C18.6945 32.3148 19.3427 32.501 20.0043 32.501C20.6659 32.501 21.3142 32.3148 21.875 31.9637L26.8175 28.8575C28.3345 27.9041 29.5848 26.5812 30.4512 25.0128C31.3176 23.4444 31.7718 21.6818 31.7712 19.89V13.4425C31.781 12.6772 31.5427 11.9296 31.09 11.3125ZM21.17 20.42V23.2562C21.17 23.5684 21.046 23.8677 20.8253 24.0884C20.6046 24.3091 20.3052 24.4331 19.9931 24.4331C19.681 24.4331 19.3816 24.3091 19.1609 24.0884C18.9402 23.8677 18.8162 23.5684 18.8162 23.2562V20.42C17.9755 20.1405 17.2618 19.5708 16.8028 18.8131C16.3438 18.0554 16.1694 17.159 16.311 16.2844C16.4526 15.4099 16.9008 14.6143 17.5755 14.0401C18.2501 13.4659 19.1072 13.1505 19.9931 13.1505C20.879 13.1505 21.736 13.4659 22.4107 14.0401C23.0853 14.6143 23.5336 15.4099 23.6751 16.2844C23.8167 17.159 23.6424 18.0554 23.1834 18.8131C22.7244 19.5708 22.0106 20.1405 21.17 20.42Z" fill="#00438A"/>
<path d="M21.3763 16.8775C21.3763 17.2425 21.2313 17.5925 20.9732 17.8506C20.7151 18.1087 20.365 18.2537 20 18.2537C19.635 18.2537 19.285 18.1087 19.0269 17.8506C18.7688 17.5925 18.6238 17.2425 18.6238 16.8775C18.6238 16.5125 18.7688 16.1624 19.0269 15.9043C19.285 15.6462 19.635 15.5012 20 15.5012C20.365 15.5012 20.7151 15.6462 20.9732 15.9043C21.2313 16.1624 21.3763 16.5125 21.3763 16.8775Z" fill="#00438A"/>
</svg>
