<svg width="40" height="40" viewBox="0 0 40 40" fill="none" xmlns="http://www.w3.org/2000/svg">
<rect width="40" height="40" rx="15" fill="#F9F9FF"/>
<rect width="30" height="30" transform="translate(5 5)" fill="#F9F9FF"/>
<path fill-rule="evenodd" clip-rule="evenodd" d="M22.8488 7.69C22.3863 7.5 21.7988 7.5 20.625 7.5C19.4513 7.5 18.865 7.5 18.4013 7.69C18.0961 7.81468 17.8187 7.99848 17.5848 8.23081C17.351 8.46314 17.1654 8.73942 17.0388 9.04375C16.9213 9.3225 16.8763 9.64875 16.8575 10.1225C16.8486 10.4656 16.7526 10.8009 16.5786 11.0967C16.4045 11.3925 16.1581 11.6393 15.8625 11.8138C15.561 11.9814 15.222 12.0702 14.8769 12.0719C14.5319 12.0737 14.192 11.9883 13.8888 11.8238C13.4663 11.6013 13.16 11.4787 12.8575 11.4388C12.1958 11.3524 11.5266 11.5302 10.995 11.9338C10.5975 12.2362 10.3038 12.7413 9.71753 13.75C9.13003 14.7587 8.83753 15.2625 8.77128 15.7562C8.68378 16.4137 8.86378 17.0787 9.27128 17.605C9.45628 17.845 9.71753 18.0463 10.1213 18.2987C10.7175 18.67 11.1 19.3025 11.1 20C11.1 20.6975 10.7175 21.33 10.1225 21.7C9.71753 21.9537 9.45628 22.155 9.27003 22.395C9.06949 22.6553 8.92221 22.9525 8.83664 23.2697C8.75106 23.587 8.72885 23.9179 8.77128 24.2438C8.83753 24.7362 9.13003 25.2412 9.71753 26.25C10.305 27.2588 10.5975 27.7625 10.995 28.0662C11.525 28.47 12.195 28.6475 12.8575 28.5613C13.16 28.5213 13.4663 28.3988 13.8888 28.1763C14.1922 28.0115 14.5323 27.926 14.8776 27.9277C15.2228 27.9295 15.5621 28.0184 15.8638 28.1862C16.4713 28.5362 16.8313 29.18 16.8575 29.8775C16.8763 30.3525 16.9213 30.6775 17.0388 30.9562C17.2938 31.5687 17.7838 32.0562 18.4013 32.31C18.8638 32.5 19.4513 32.5 20.625 32.5C21.7988 32.5 22.3863 32.5 22.8488 32.31C23.1539 32.1853 23.4314 32.0015 23.6652 31.7692C23.8991 31.5369 24.0846 31.2606 24.2113 30.9562C24.3288 30.6775 24.3738 30.3525 24.3925 29.8775C24.4175 29.18 24.7788 28.535 25.3875 28.1862C25.6891 28.0186 26.0281 27.9298 26.3731 27.9281C26.7181 27.9263 27.058 28.0117 27.3613 28.1763C27.7838 28.3988 28.09 28.5213 28.3925 28.5613C29.055 28.6488 29.725 28.47 30.255 28.0662C30.6525 27.7637 30.9463 27.2588 31.5325 26.25C32.12 25.2412 32.4125 24.7375 32.4788 24.2438C32.521 23.9179 32.4986 23.5868 32.4128 23.2696C32.327 22.9524 32.1795 22.6552 31.9788 22.395C31.7938 22.155 31.5325 21.9537 31.1288 21.7013C30.5325 21.33 30.15 20.6975 30.15 20C30.15 19.3025 30.5325 18.67 31.1275 18.3C31.5325 18.0463 31.7938 17.845 31.98 17.605C32.1806 17.3447 32.3278 17.0475 32.4134 16.7303C32.499 16.413 32.5212 16.0821 32.4788 15.7562C32.4125 15.2637 32.12 14.7587 31.5325 13.75C30.945 12.7413 30.6525 12.2375 30.255 11.9338C29.7234 11.5302 29.0543 11.3524 28.3925 11.4388C28.09 11.4787 27.7838 11.6013 27.3613 11.8238C27.0579 11.9885 26.7178 12.074 26.3725 12.0723C26.0272 12.0705 25.688 11.9816 25.3863 11.8138C25.0909 11.6391 24.8448 11.3923 24.6709 11.0965C24.4971 10.8007 24.4013 10.4655 24.3925 10.1225C24.3738 9.6475 24.3288 9.3225 24.2113 9.04375C24.0846 8.73942 23.8991 8.46314 23.6652 8.23081C23.4314 7.99848 23.1539 7.81468 22.8488 7.69ZM20.625 23.75C22.7125 23.75 24.4038 22.0712 24.4038 20C24.4038 17.9288 22.7113 16.25 20.625 16.25C18.5388 16.25 16.8463 17.9288 16.8463 20C16.8463 22.0712 18.5388 23.75 20.625 23.75Z" fill="#00438A"/>
</svg>
