<svg width="30" height="30" viewBox="0 0 30 30" fill="none" xmlns="http://www.w3.org/2000/svg">
<path d="M4.41675 27.6797C4.20767 27.5048 4.03958 27.2861 3.92436 27.039C3.80914 26.792 3.7496 26.5226 3.74995 26.25C3.7501 26.0357 3.78656 25.8229 3.85776 25.6207L7.02182 16.2516C7.05321 16.1587 7.11294 16.078 7.19262 16.0208C7.27229 15.9636 7.3679 15.9328 7.46597 15.9328L15.9374 15.9328C16.066 15.9331 16.1932 15.907 16.3112 15.856C16.4292 15.8051 16.5354 15.7304 16.6233 15.6367C16.7112 15.5429 16.7789 15.4321 16.8222 15.3111C16.8655 15.1901 16.8835 15.0615 16.8749 14.9332C16.8537 14.6922 16.7421 14.468 16.5627 14.3057C16.3832 14.1434 16.149 14.0548 15.907 14.0578L7.46948 14.0578C7.37141 14.0579 7.27581 14.0271 7.19613 13.9699C7.11646 13.9127 7.05672 13.832 7.02534 13.7391L3.86128 4.36996C3.73499 4.01052 3.72119 3.62113 3.82172 3.25365C3.92225 2.88617 4.13234 2.55804 4.42402 2.31294C4.71569 2.06784 5.07511 1.91741 5.45441 1.88168C5.83371 1.84595 6.2149 1.92661 6.54721 2.11293L26.2347 13.3594C26.5247 13.5225 26.766 13.7598 26.934 14.047C27.1019 14.3342 27.1904 14.6609 27.1904 14.9936C27.1904 15.3263 27.1019 15.653 26.934 15.9402C26.766 16.2273 26.5247 16.4647 26.2347 16.6278L6.55073 27.8789C6.21783 28.0696 5.83417 28.1528 5.4522 28.1171C5.07023 28.0815 4.7086 27.9287 4.41675 27.6797Z" fill="#00438A"/>
</svg>
