<svg width="40" height="40" viewBox="0 0 40 40" fill="none" xmlns="http://www.w3.org/2000/svg">
<rect width="40" height="40" rx="15" fill="#F9F9FF"/>
<rect width="30" height="30" transform="translate(5 5)" fill="#F9F9FF"/>
<path d="M10.625 8.75C10.625 7.75544 11.0201 6.80161 11.7233 6.09835C12.4266 5.39509 13.3804 5 14.375 5H25.625C26.6196 5 27.5734 5.39509 28.2766 6.09835C28.9799 6.80161 29.375 7.75544 29.375 8.75V31.25C29.375 32.2446 28.9799 33.1984 28.2766 33.9016C27.5734 34.6049 26.6196 35 25.625 35H14.375C13.3804 35 12.4266 34.6049 11.7233 33.9016C11.0201 33.1984 10.625 32.2446 10.625 31.25V8.75ZM21.875 29.375C21.875 28.8777 21.6775 28.4008 21.3258 28.0492C20.9742 27.6975 20.4973 27.5 20 27.5C19.5027 27.5 19.0258 27.6975 18.6742 28.0492C18.3225 28.4008 18.125 28.8777 18.125 29.375C18.125 29.8723 18.3225 30.3492 18.6742 30.7008C19.0258 31.0525 19.5027 31.25 20 31.25C20.4973 31.25 20.9742 31.0525 21.3258 30.7008C21.6775 30.3492 21.875 29.8723 21.875 29.375Z" fill="#00438A"/>
</svg>
