<svg width="40" height="40" viewBox="0 0 40 40" fill="none" xmlns="http://www.w3.org/2000/svg">
<rect width="40" height="40" rx="15" fill="#F9F9FF"/>
<path d="M27.5 10H30C31.375 10 32.5 11.125 32.5 12.5V15C32.5 15.6875 31.9375 16.25 31.25 16.25C30.5625 16.25 30 15.6875 30 15V12.5H27.5C26.8125 12.5 26.25 11.9375 26.25 11.25C26.25 10.5625 26.8125 10 27.5 10ZM10 15V12.5H12.5C13.1875 12.5 13.75 11.9375 13.75 11.25C13.75 10.5625 13.1875 10 12.5 10H10C8.625 10 7.5 11.125 7.5 12.5V15C7.5 15.6875 8.0625 16.25 8.75 16.25C9.4375 16.25 10 15.6875 10 15ZM30 25V27.5H27.5C26.8125 27.5 26.25 28.0625 26.25 28.75C26.25 29.4375 26.8125 30 27.5 30H30C31.375 30 32.5 28.875 32.5 27.5V25C32.5 24.3125 31.9375 23.75 31.25 23.75C30.5625 23.75 30 24.3125 30 25ZM12.5 27.5H10V25C10 24.3125 9.4375 23.75 8.75 23.75C8.0625 23.75 7.5 24.3125 7.5 25V27.5C7.5 28.875 8.625 30 10 30H12.5C13.1875 30 13.75 29.4375 13.75 28.75C13.75 28.0625 13.1875 27.5 12.5 27.5ZM25 15H15C13.625 15 12.5 16.125 12.5 17.5V22.5C12.5 23.875 13.625 25 15 25H25C26.375 25 27.5 23.875 27.5 22.5V17.5C27.5 16.125 26.375 15 25 15Z" fill="#00438A"/>
</svg>
