<svg width="21" height="20" viewBox="0 0 21 20" fill="none" xmlns="http://www.w3.org/2000/svg">
<path d="M20.9999 16.9336C20.9999 17.1424 20.917 17.3427 20.7693 17.4903C20.6216 17.638 20.4213 17.7209 20.2124 17.7209H14.8574C14.6821 18.3748 14.2958 18.9525 13.7585 19.3646C13.2213 19.7767 12.5631 20 11.886 20C11.2088 20 10.5506 19.7767 10.0134 19.3646C9.47613 18.9525 9.08986 18.3748 8.91447 17.7209H0.787497C0.57864 17.7209 0.378337 17.638 0.230653 17.4903C0.0829681 17.3427 0 17.1424 0 16.9336C0 16.7248 0.0829681 16.5246 0.230653 16.3769C0.378337 16.2293 0.57864 16.1463 0.787497 16.1463H8.91447C9.08986 15.4924 9.47613 14.9147 10.0134 14.5026C10.5506 14.0906 11.2088 13.8672 11.886 13.8672C12.5631 13.8672 13.2213 14.0906 13.7585 14.5026C14.2958 14.9147 14.6821 15.4924 14.8574 16.1463H20.2124C20.4213 16.1463 20.6216 16.2293 20.7693 16.3769C20.917 16.5246 20.9999 16.7248 20.9999 16.9336ZM20.9999 3.06638C20.9999 3.27519 20.917 3.47545 20.7693 3.6231C20.6216 3.77075 20.4213 3.8537 20.2124 3.8537H17.6399C17.4645 4.50756 17.0783 5.08531 16.541 5.49737C16.0038 5.90943 15.3456 6.13277 14.6684 6.13277C13.9913 6.13277 13.3331 5.90943 12.7959 5.49737C12.2586 5.08531 11.8724 4.50756 11.697 3.8537H0.787497C0.684082 3.8537 0.581679 3.83333 0.486135 3.79377C0.390592 3.7542 0.303778 3.69621 0.230653 3.6231C0.157527 3.54999 0.09952 3.4632 0.0599446 3.36768C0.0203691 3.27216 0 3.16978 0 3.06638C0 2.96299 0.0203691 2.86061 0.0599446 2.76509C0.09952 2.66957 0.157527 2.58278 0.230653 2.50967C0.303778 2.43656 0.390592 2.37857 0.486135 2.339C0.581679 2.29943 0.684082 2.27907 0.787497 2.27907H11.697C11.8724 1.6252 12.2586 1.04745 12.7959 0.635398C13.3331 0.223342 13.9913 0 14.6684 0C15.3456 0 16.0038 0.223342 16.541 0.635398C17.0783 1.04745 17.4645 1.6252 17.6399 2.27907H20.2124C20.3162 2.27766 20.4193 2.29706 20.5155 2.33612C20.6116 2.37519 20.699 2.43313 20.7724 2.50652C20.8458 2.57991 20.9038 2.66727 20.9429 2.76343C20.9819 2.85959 21.0013 2.9626 20.9999 3.06638ZM20.9999 9.99475C21.0013 10.0985 20.9819 10.2015 20.9429 10.2977C20.9038 10.3939 20.8458 10.4812 20.7724 10.5546C20.699 10.628 20.6116 10.6859 20.5155 10.725C20.4193 10.7641 20.3162 10.7835 20.2124 10.7821H7.92747C7.75208 11.4359 7.36582 12.0137 6.82857 12.4257C6.29132 12.8378 5.63311 13.0611 4.95598 13.0611C4.27885 13.0611 3.62064 12.8378 3.0834 12.4257C2.54615 12.0137 2.15989 11.4359 1.98449 10.7821H0.787497C0.57864 10.7821 0.378337 10.6991 0.230653 10.5515C0.0829681 10.4038 0 10.2036 0 9.99475C0 9.78594 0.0829681 9.58569 0.230653 9.43804C0.378337 9.29039 0.57864 9.20744 0.787497 9.20744H1.98449C2.15989 8.55357 2.54615 7.97582 3.0834 7.56377C3.62064 7.15171 4.27885 6.92837 4.95598 6.92837C5.63311 6.92837 6.29132 7.15171 6.82857 7.56377C7.36582 7.97582 7.75208 8.55357 7.92747 9.20744H20.2124C20.4213 9.20744 20.6216 9.29039 20.7693 9.43804C20.917 9.58569 20.9999 9.78594 20.9999 9.99475Z" fill="#54595F"/>
</svg>
