<svg width="40" height="40" viewBox="0 0 40 40" fill="none" xmlns="http://www.w3.org/2000/svg">
<rect width="40" height="40" rx="15" fill="#F9F9FF"/>
<g clip-path="url(#clip0_1066_345)">
<rect width="30" height="30" transform="translate(5 5)" fill="#F9F9FF"/>
<mask id="mask0_1066_345" style="mask-type:luminance" maskUnits="userSpaceOnUse" x="5" y="5" width="30" height="30">
<path d="M5 5H35V35H5V5Z" fill="white"/>
<path d="M14.5238 25.303C14.4187 25.1942 14.3606 25.0485 14.3619 24.8972C14.3632 24.746 14.4239 24.6013 14.5309 24.4943C14.6378 24.3873 14.7825 24.3267 14.9338 24.3253C15.0851 24.324 15.2308 24.3822 15.3396 24.4873C16.2271 25.3748 17.3579 25.9791 18.5889 26.224C19.8199 26.4688 21.0959 26.3432 22.2554 25.8629C23.415 25.3825 24.4061 24.5692 25.1035 23.5256C25.8008 22.482 26.173 21.2551 26.1731 20C26.1798 19.8516 26.2436 19.7115 26.3511 19.609C26.4585 19.5064 26.6014 19.4493 26.75 19.4494C26.8985 19.4496 27.0413 19.507 27.1485 19.6098C27.2558 19.7125 27.3193 19.8527 27.3257 20.0011C27.3257 21.4844 26.8857 22.9344 26.0616 24.1677C25.2375 25.4009 24.0662 26.3622 22.6958 26.9298C21.3254 27.4974 19.8175 27.6459 18.3627 27.3566C16.9079 27.0672 15.5716 26.353 14.5227 25.3042" fill="black"/>
<path d="M23.6126 22.7877C23.4853 22.8726 23.3295 22.9035 23.1795 22.8735C23.0294 22.8435 22.8974 22.7552 22.8125 22.6279C22.7275 22.5005 22.6967 22.3447 22.7266 22.1947C22.7566 22.0446 22.845 21.9126 22.9723 21.8277L26.4338 19.52C26.4968 19.4779 26.5675 19.4487 26.6419 19.434C26.7162 19.4192 26.7927 19.4193 26.867 19.4341C26.9413 19.449 27.012 19.4783 27.0749 19.5205C27.1379 19.5626 27.1919 19.6167 27.234 19.6798C27.276 19.7428 27.3053 19.8135 27.32 19.8878C27.3347 19.9622 27.3347 20.0387 27.3198 20.113C27.305 20.1873 27.2756 20.2579 27.2335 20.3209C27.1914 20.3839 27.1372 20.4379 27.0742 20.48L23.6126 22.7877Z" fill="black"/>
<path d="M29.5377 23.1419C29.5823 23.2049 29.6139 23.2761 29.6305 23.3515C29.6471 23.4269 29.6484 23.5049 29.6343 23.5807C29.6203 23.6566 29.5911 23.7289 29.5486 23.7934C29.5061 23.8578 29.4511 23.913 29.3868 23.9558C29.3226 23.9986 29.2504 24.028 29.1746 24.0424C29.0987 24.0568 29.0208 24.0558 28.9453 24.0395C28.8699 24.0232 28.7985 23.992 28.7353 23.9476C28.6722 23.9032 28.6186 23.8466 28.5777 23.7811L26.27 20.3196C26.1905 20.1923 26.1638 20.039 26.1954 19.8923C26.2271 19.7456 26.3147 19.617 26.4396 19.5339C26.5645 19.4507 26.717 19.4194 26.8645 19.4468C27.0121 19.4742 27.1432 19.5579 27.23 19.6804L29.5377 23.1419ZM25.0238 14.4673C25.132 14.5756 25.1927 14.7225 25.1926 14.8756C25.1925 15.0287 25.1316 15.1755 25.0233 15.2836C24.9149 15.3918 24.7681 15.4525 24.615 15.4524C24.4619 15.4523 24.3151 15.3914 24.2069 15.2831C23.3193 14.3955 22.1885 13.7911 20.9573 13.5463C19.7262 13.3015 18.4502 13.4272 17.2905 13.9077C16.1309 14.3881 15.1398 15.2017 14.4426 16.2455C13.7453 17.2892 13.3733 18.5163 13.3735 19.7715C13.3733 19.9245 13.3124 20.0712 13.2041 20.1793C13.0958 20.2874 12.949 20.348 12.796 20.3479C12.6429 20.3477 12.4963 20.2868 12.3882 20.1785C12.2801 20.0702 12.2195 19.9234 12.2196 19.7704C12.2195 18.2868 12.6593 16.8366 13.4835 15.603C14.3076 14.3695 15.4791 13.4081 16.8498 12.8404C18.2204 12.2728 19.7286 12.1243 21.1836 12.4139C22.6386 12.7035 23.975 13.4181 25.0238 14.4673Z" fill="black"/>
<path d="M15.9339 16.9827C16.0612 16.8978 16.217 16.8669 16.3671 16.8969C16.5171 16.9268 16.6491 17.0152 16.734 17.1425C16.819 17.2698 16.8498 17.4256 16.8199 17.5757C16.7899 17.7257 16.7015 17.8578 16.5742 17.9427L13.1127 20.2504C13.0497 20.2924 12.979 20.3216 12.9046 20.3364C12.8303 20.3511 12.7538 20.351 12.6795 20.3362C12.6052 20.3214 12.5345 20.292 12.4716 20.2499C12.4086 20.2077 12.3546 20.1536 12.3125 20.0906C12.2705 20.0275 12.2412 19.9568 12.2265 19.8825C12.2118 19.8082 12.2118 19.7317 12.2267 19.6574C12.2415 19.5831 12.2709 19.5124 12.313 19.4494C12.3551 19.3865 12.4093 19.3324 12.4723 19.2904L15.9339 16.9827Z" fill="black"/>
<path d="M10.0088 16.6285C9.96418 16.5655 9.93262 16.4942 9.91603 16.4188C9.89943 16.3434 9.89812 16.2655 9.91219 16.1896C9.92626 16.1137 9.95541 16.0414 9.99793 15.977C10.0404 15.9126 10.0954 15.8573 10.1597 15.8146C10.2239 15.7718 10.2961 15.7423 10.372 15.7279C10.4478 15.7136 10.5257 15.7145 10.6012 15.7308C10.6766 15.7471 10.7481 15.7784 10.8112 15.8228C10.8743 15.8671 10.9279 15.9238 10.9688 15.9892L13.2765 19.4508C13.356 19.5781 13.3827 19.7313 13.3511 19.878C13.3194 20.0247 13.2318 20.1533 13.1069 20.2365C12.982 20.3197 12.8296 20.3509 12.682 20.3236C12.5344 20.2962 12.4033 20.2124 12.3165 20.09L10.0088 16.6285Z" fill="black"/>
</mask>
<g mask="url(#mask0_1066_345)">
<path d="M20 35C28.2843 35 35 28.2843 35 20C35 11.7157 28.2843 5 20 5C11.7157 5 5 11.7157 5 20C5 28.2843 11.7157 35 20 35Z" fill="#00438A"/>
</g>
</g>
<defs>
<clipPath id="clip0_1066_345">
<rect width="30" height="30" fill="white" transform="translate(5 5)"/>
</clipPath>
</defs>
</svg>
