<svg width="40" height="40" viewBox="0 0 40 40" fill="none" xmlns="http://www.w3.org/2000/svg">
<rect width="40" height="40" rx="15" fill="#F9F9FF"/>
<path d="M31.25 16.25V12.5H13.75V16.25H31.25ZM31.25 8.75C31.913 8.75 32.5489 9.01339 33.0178 9.48223C33.4866 9.95107 33.75 10.587 33.75 11.25V23.75C33.75 24.413 33.4866 25.0489 33.0178 25.5178C32.5489 25.9866 31.913 26.25 31.25 26.25H13.75C13.087 26.25 12.4511 25.9866 11.9822 25.5178C11.5134 25.0489 11.25 24.413 11.25 23.75V11.25C11.25 10.587 11.5134 9.95107 11.9822 9.48223C12.4511 9.01339 13.087 8.75 13.75 8.75H31.25ZM8.75 28.75H27.5V31.25H8.75C8.08696 31.25 7.45107 30.9866 6.98223 30.5178C6.51339 30.0489 6.25 29.413 6.25 28.75V15H8.75V28.75Z" fill="#00438A"/>
</svg>
