<svg width="40" height="40" viewBox="0 0 40 40" fill="none" xmlns="http://www.w3.org/2000/svg">
<rect width="40" height="40" rx="15" fill="#F9F9FF"/>
<path d="M32.4001 19.525C32.3406 19.3715 32.2514 19.2314 32.1376 19.1125L29.0126 15.9875C28.7772 15.7521 28.458 15.6199 28.1251 15.6199C27.7922 15.6199 27.473 15.7521 27.2376 15.9875C27.0022 16.2229 26.87 16.5421 26.87 16.875C26.87 17.2079 27.0022 17.5271 27.2376 17.7625L28.2376 18.75H22.5001C22.1686 18.75 21.8507 18.8817 21.6162 19.1161C21.3818 19.3505 21.2501 19.6685 21.2501 20C21.2501 20.3315 21.3818 20.6495 21.6162 20.8839C21.8507 21.1183 22.1686 21.25 22.5001 21.25H28.2376L27.2376 22.2375C27.1205 22.3537 27.0275 22.4919 26.964 22.6443C26.9005 22.7966 26.8679 22.96 26.8679 23.125C26.8679 23.29 26.9005 23.4534 26.964 23.6057C27.0275 23.758 27.1205 23.8963 27.2376 24.0125C27.3538 24.1296 27.4921 24.2226 27.6444 24.2861C27.7967 24.3496 27.9601 24.3822 28.1251 24.3822C28.2901 24.3822 28.4535 24.3496 28.6058 24.2861C28.7582 24.2226 28.8964 24.1296 29.0126 24.0125L32.1376 20.8875C32.2514 20.7686 32.3406 20.6284 32.4001 20.475C32.5251 20.1707 32.5251 19.8293 32.4001 19.525ZM17.5001 18.75H11.7626L12.7626 17.7625C12.998 17.5271 13.1302 17.2079 13.1302 16.875C13.1302 16.5421 12.998 16.2229 12.7626 15.9875C12.5272 15.7521 12.208 15.6199 11.8751 15.6199C11.5422 15.6199 11.223 15.7521 10.9876 15.9875L7.86261 19.1125C7.74881 19.2314 7.65961 19.3715 7.60011 19.525C7.47509 19.8293 7.47509 20.1707 7.60011 20.475C7.65961 20.6284 7.74881 20.7686 7.86261 20.8875L10.9876 24.0125C11.1038 24.1296 11.2421 24.2226 11.3944 24.2861C11.5467 24.3496 11.7101 24.3822 11.8751 24.3822C12.0401 24.3822 12.2035 24.3496 12.3558 24.2861C12.5082 24.2226 12.6464 24.1296 12.7626 24.0125C12.8798 23.8963 12.9728 23.758 13.0362 23.6057C13.0997 23.4534 13.1324 23.29 13.1324 23.125C13.1324 22.96 13.0997 22.7966 13.0362 22.6443C12.9728 22.4919 12.8798 22.3537 12.7626 22.2375L11.7626 21.25H17.5001C17.8316 21.25 18.1496 21.1183 18.384 20.8839C18.6184 20.6495 18.7501 20.3315 18.7501 20C18.7501 19.6685 18.6184 19.3505 18.384 19.1161C18.1496 18.8817 17.8316 18.75 17.5001 18.75Z" fill="#00438A"/>
</svg>
