<svg width="40" height="40" viewBox="0 0 40 40" fill="none" xmlns="http://www.w3.org/2000/svg">
<rect width="40" height="40" rx="15" fill="#F9F9FF"/>
<rect width="30" height="30" transform="translate(5 5)" fill="#F9F9FF"/>
<path d="M20 7.5C26.9038 7.5 32.5 13.0963 32.5 20C32.5 26.9038 26.9038 32.5 20 32.5C13.0963 32.5 7.5 26.9038 7.5 20C7.5 13.0963 13.0963 7.5 20 7.5ZM25.005 21.0975C24.5738 20.4413 24.2625 19.9688 23.0775 20.1563C20.84 20.5113 20.5913 20.9025 20.485 21.5475L20.455 21.7425L20.4238 21.95C20.3025 22.8038 20.3063 23.1263 20.6988 23.5375C22.28 25.1975 23.2275 26.3938 23.515 27.0938C23.655 27.435 24.015 28.4688 23.7675 29.4913C25.2844 28.8863 26.6348 27.9276 27.7063 26.695C27.8438 26.2275 27.9438 25.645 27.9438 24.94V24.8088C27.9438 23.6563 27.9438 23.13 27.1288 22.6638C26.8672 22.5146 26.5981 22.379 26.3225 22.2575C25.8638 22.0488 25.56 21.9125 25.15 21.3125C25.1 21.2417 25.0517 21.17 25.005 21.0975ZM20 9.79125C17.1038 9.79125 14.4875 10.9988 12.63 12.9363C12.8513 13.09 13.0438 13.3063 13.1763 13.6038C13.4313 14.175 13.4313 14.7638 13.4313 15.285C13.4313 15.695 13.4313 16.085 13.5625 16.3663C13.7425 16.7513 14.52 16.9163 15.2063 17.0588C15.4525 17.1113 15.705 17.1638 15.935 17.2275C16.5675 17.4025 17.0575 17.9713 17.4488 18.4275C17.6113 18.6163 17.8525 18.895 17.9738 18.965C18.0363 18.92 18.2375 18.7013 18.3363 18.3425C18.4138 18.0675 18.3913 17.825 18.28 17.6925C17.58 16.8675 17.6188 15.28 17.835 14.6938C18.175 13.77 19.2375 13.8388 20.015 13.8888C20.305 13.9075 20.5775 13.9263 20.7825 13.9C21.56 13.8025 21.8 12.6188 21.9688 12.3875C22.3338 11.8875 23.4513 11.1338 24.1438 10.6688C22.8398 10.0874 21.4277 9.78834 20 9.79125Z" fill="#00438A"/>
</svg>
