<svg width="20" height="20" viewBox="0 0 20 20" fill="none" xmlns="http://www.w3.org/2000/svg">
<path d="M8 0C5.87827 0 3.84344 0.842855 2.34315 2.34315C0.842855 3.84344 0 5.87827 0 8C0 10.1217 0.842855 12.1566 2.34315 13.6569C3.84344 15.1571 5.87827 16 8 16C10.1217 16 12.1566 15.1571 13.6569 13.6569C15.1571 12.1566 16 10.1217 16 8C16 5.87827 15.1571 3.84344 13.6569 2.34315C12.1566 0.842855 10.1217 0 8 0Z" fill="#54595F"/>
<path fill-rule="evenodd" clip-rule="evenodd" d="M19.707 19.707C19.5195 19.8945 19.2652 19.9998 19 19.9998C18.7349 19.9998 18.4806 19.8945 18.293 19.707L14.793 16.207C14.6109 16.0184 14.5101 15.7658 14.5124 15.5036C14.5146 15.2414 14.6198 14.9906 14.8052 14.8052C14.9906 14.6198 15.2414 14.5146 15.5036 14.5123C15.7658 14.51 16.0184 14.6108 16.207 14.793L19.707 18.293C19.8945 18.4805 19.9998 18.7348 19.9998 19C19.9998 19.2652 19.8945 19.5195 19.707 19.707Z" fill="#54595F"/>
</svg>
