<svg width="40" height="40" viewBox="0 0 40 40" fill="none" xmlns="http://www.w3.org/2000/svg">
<g clip-path="url(#clip0_1011_24006)">
<mask id="mask0_1011_24006" style="mask-type:luminance" maskUnits="userSpaceOnUse" x="0" y="0" width="40" height="40">
<path d="M0 0H40V40H0V0Z" fill="white"/>
<path fill-rule="evenodd" clip-rule="evenodd" d="M6.53845 20C6.53845 23.5702 7.95672 26.9942 10.4812 29.5187C13.0058 32.0433 16.4298 33.4615 20 33.4615C23.5702 33.4615 26.9942 32.0433 29.5187 29.5187C32.0433 26.9942 33.4615 23.5702 33.4615 20C33.4615 16.4298 32.0433 13.0058 29.5187 10.4812C26.9942 7.95672 23.5702 6.53845 20 6.53845C16.4298 6.53845 13.0058 7.95672 10.4812 10.4812C7.95672 13.0058 6.53845 16.4298 6.53845 20ZM31.1538 20C31.1538 22.9582 29.9787 25.7952 27.8869 27.8869C25.7952 29.9787 22.9582 31.1538 20 31.1538C17.0418 31.1538 14.2048 29.9787 12.113 27.8869C10.0213 25.7952 8.84614 22.9582 8.84614 20C8.84614 17.0418 10.0213 14.2048 12.113 12.113C14.2048 10.0213 17.0418 8.84614 20 8.84614C22.9582 8.84614 25.7952 10.0213 27.8869 12.113C29.9787 14.2048 31.1538 17.0418 31.1538 20Z" fill="black"/>
<path fill-rule="evenodd" clip-rule="evenodd" d="M14.2308 20C14.2308 26.9569 16.5246 32.6923 20 32.6923C23.4754 32.6923 25.7692 26.9569 25.7692 20C25.7692 13.0431 23.4754 7.30768 20 7.30768C16.5246 7.30768 14.2308 13.0431 14.2308 20ZM23.4615 20C23.4615 25.7877 21.6231 30.3846 20 30.3846C18.3769 30.3846 16.5385 25.7877 16.5385 20C16.5385 14.2123 18.3769 9.61537 20 9.61537C21.6231 9.61537 23.4615 14.2123 23.4615 20Z" fill="black"/>
<path d="M10.1569 13.0261L11.7046 11.3154C11.8584 11.4549 12.0251 11.5918 12.2046 11.7261C14.16 13.1908 17.2815 14.0954 20.6892 14.0954C23.5984 14.0954 26.3092 13.4384 28.2754 12.3138C28.7502 12.042 29.1702 11.7497 29.5354 11.4369L31.0338 13.1923C30.5559 13.6015 30.0184 13.9759 29.4215 14.3154C27.0892 15.6508 23.9846 16.4015 20.6892 16.4015C16.8092 16.4015 13.2046 15.3584 10.82 13.5723C10.5906 13.4006 10.3693 13.2184 10.1569 13.0261ZM10.1569 26.9984L11.7046 28.7092C11.8584 28.5697 12.0251 28.4328 12.2046 28.2984C14.16 26.8338 17.2815 25.9292 20.6892 25.9292C23.5984 25.9292 26.3092 26.5861 28.2754 27.7108C28.7502 27.9825 29.1702 28.2749 29.5354 28.5877L31.0338 26.8323C30.5317 26.4096 29.9921 26.0337 29.4215 25.7092C27.0892 24.3738 23.9846 23.6231 20.6892 23.6231C16.8092 23.6231 13.2046 24.6661 10.82 26.4523C10.5906 26.624 10.3693 26.8062 10.1569 26.9984ZM7.30768 21.1538V18.8461H32.6923V21.1538H7.30768Z" fill="black"/>
</mask>
<g mask="url(#mask0_1011_24006)">
<path d="M20 40C31.0457 40 40 31.0457 40 20C40 8.9543 31.0457 0 20 0C8.9543 0 0 8.9543 0 20C0 31.0457 8.9543 40 20 40Z" fill="#A8A3D7"/>
</g>
</g>
<defs>
<clipPath id="clip0_1011_24006">
<rect width="40" height="40" fill="white"/>
</clipPath>
</defs>
</svg>
