<svg width="10" height="8" viewBox="0 0 10 8" fill="none" xmlns="http://www.w3.org/2000/svg">
<path fill-rule="evenodd" clip-rule="evenodd" d="M2.28012 1.00747C1.60494 1.3112 1.11047 2.03406 1.11047 2.89595C1.11047 3.77629 1.47674 4.45507 2.00093 5.03688C2.43355 5.51611 2.95692 5.91361 3.46727 6.30068C3.58882 6.39284 3.70888 6.48473 3.82744 6.57636C4.04151 6.74265 4.23238 6.8881 4.41674 6.99429C4.6011 7.10047 4.74884 7.14855 4.875 7.14855C5.00116 7.14855 5.1493 7.10047 5.33326 6.99429C5.51762 6.8881 5.70849 6.74265 5.92256 6.57636C6.04112 6.48447 6.16118 6.39271 6.28273 6.30108C6.79308 5.9132 7.31645 5.51611 7.74907 5.03688C8.27366 4.45507 8.63953 3.77629 8.63953 2.89595C8.63953 2.03446 8.14506 1.3112 7.46988 1.00747C6.81384 0.712155 5.93233 0.790291 5.09477 1.64738C5.06629 1.67647 5.03216 1.6996 4.9944 1.7154C4.95664 1.73121 4.91603 1.73935 4.875 1.73935C4.83397 1.73935 4.79336 1.73121 4.7556 1.7154C4.71784 1.6996 4.68371 1.67647 4.65523 1.64738C3.81767 0.790291 2.93616 0.712155 2.28012 1.00747ZM4.875 1.02189C3.93407 0.192451 2.88041 0.0762487 2.02616 0.460517C1.12512 0.867225 0.5 1.80966 0.5 2.89636C0.5 3.96421 0.951744 4.77923 1.54471 5.43637C2.01924 5.96249 2.6 6.40286 3.1132 6.79153C3.22986 6.87969 3.34192 6.96544 3.44936 7.04878C3.65814 7.21066 3.88198 7.38296 4.10866 7.51359C4.33535 7.64422 4.59419 7.75 4.875 7.75C5.15581 7.75 5.41465 7.64382 5.64134 7.51359C5.86843 7.38296 6.09186 7.21066 6.30064 7.04878C6.40808 6.96544 6.52014 6.87969 6.6368 6.79153C7.14959 6.40286 7.73076 5.96209 8.20529 5.43637C8.79826 4.77923 9.25 3.96421 9.25 2.89636C9.25 1.80966 8.62529 0.867225 7.72384 0.461319C6.86959 0.0766495 5.81593 0.192852 4.875 1.02189Z" fill="white"/>
</svg>
