<svg width="30" height="30" viewBox="0 0 30 30" fill="none" xmlns="http://www.w3.org/2000/svg">
<path fill-rule="evenodd" clip-rule="evenodd" d="M5 8.125C5 7.77982 5.27982 7.5 5.625 7.5H24.375C24.7202 7.5 25 7.77982 25 8.125C25 8.47018 24.7202 8.75 24.375 8.75H5.625C5.27982 8.75 5 8.47018 5 8.125ZM5 15C5 14.6548 5.27982 14.375 5.625 14.375H24.375C24.7202 14.375 25 14.6548 25 15C25 15.3452 24.7202 15.625 24.375 15.625H5.625C5.27982 15.625 5 15.3452 5 15ZM5 21.875C5 21.5298 5.27982 21.25 5.625 21.25H24.375C24.7202 21.25 25 21.5298 25 21.875C25 22.2202 24.7202 22.5 24.375 22.5H5.625C5.27982 22.5 5 22.2202 5 21.875Z" fill="#CACACA"/>
</svg>
