<svg width="35" height="30" viewBox="0 0 35 30" fill="none" xmlns="http://www.w3.org/2000/svg">
<path fill-rule="evenodd" clip-rule="evenodd" d="M7.12046 3.02988C4.41977 4.24479 2.44186 7.13622 2.44186 10.5838C2.44186 14.1051 3.90698 16.8203 6.00372 19.1475C7.73419 21.0645 9.82767 22.6544 11.8691 24.2027C12.3553 24.5714 12.8355 24.9389 13.3098 25.3054C14.166 25.9706 14.9295 26.5524 15.667 26.9771C16.4044 27.4019 16.9953 27.5942 17.5 27.5942C18.0047 27.5942 18.5972 27.4019 19.333 26.9771C20.0705 26.5524 20.834 25.9706 21.6902 25.3054C22.1645 24.9379 22.6447 24.5708 23.1309 24.2043C25.1723 22.6528 27.2658 21.0645 28.9963 19.1475C31.0947 16.8203 32.5581 14.1051 32.5581 10.5838C32.5581 7.13782 30.5802 4.24479 27.8795 3.02988C25.2553 1.84862 21.7293 2.16116 18.3791 5.58953C18.2652 5.70587 18.1286 5.79841 17.9776 5.86162C17.8265 5.92482 17.6641 5.9574 17.5 5.9574C17.3359 5.9574 17.1734 5.92482 17.0224 5.86162C16.8714 5.79841 16.7348 5.70587 16.6209 5.58953C13.2707 2.16116 9.74465 1.84862 7.12046 3.02988ZM17.5 3.08758C13.7363 -0.230196 9.52163 -0.695005 6.10465 0.842069C2.50047 2.4689 0 6.23866 0 10.5854C0 14.8569 1.80698 18.1169 4.17884 20.7455C6.07698 22.85 8.4 24.6114 10.4528 26.1661C10.9195 26.5187 11.3677 26.8617 11.7974 27.1951C12.6326 27.8426 13.5279 28.5318 14.4347 29.0544C15.3414 29.5769 16.3767 30 17.5 30C18.6233 30 19.6586 29.5753 20.5653 29.0544C21.4737 28.5318 22.3674 27.8426 23.2026 27.1951C23.6323 26.8617 24.0805 26.5187 24.5472 26.1661C26.5984 24.6114 28.923 22.8484 30.8212 20.7455C33.193 18.1169 35 14.8569 35 10.5854C35 6.23866 32.5012 2.4689 28.8953 0.845275C25.4784 -0.693402 21.2637 -0.228594 17.5 3.08758Z" fill="#212529"/>
</svg>
