<svg width="30" height="30" viewBox="0 0 30 30" fill="none" xmlns="http://www.w3.org/2000/svg">
<path d="M15.9375 18.75C16.6834 18.75 17.3988 19.0463 17.9262 19.5738C18.4537 20.1012 18.75 20.8166 18.75 21.5625V22.5C18.75 26.1956 15.2625 30 9.375 30C3.4875 30 0 26.1956 0 22.5V21.5625C0 20.8166 0.296316 20.1012 0.823762 19.5738C1.35121 19.0463 2.06658 18.75 2.8125 18.75H15.9375ZM9.375 6.5625C10.7425 6.5625 12.054 7.10575 13.021 8.07273C13.988 9.03971 14.5312 10.3512 14.5312 11.7188C14.5312 13.0863 13.988 14.3978 13.021 15.3648C12.054 16.3318 10.7425 16.875 9.375 16.875C8.00748 16.875 6.69596 16.3318 5.72898 15.3648C4.762 14.3978 4.21875 13.0863 4.21875 11.7188C4.21875 10.3512 4.762 9.03971 5.72898 8.07273C6.69596 7.10575 8.00748 6.5625 9.375 6.5625ZM26.25 0C27.1958 0.00017358 28.1065 0.357697 28.7998 1.00094C29.4932 1.64419 29.9178 2.52566 29.9887 3.46875L30 3.75V7.5C30.0003 8.44608 29.643 9.35731 28.9997 10.051C28.3564 10.7447 27.4747 11.1697 26.5312 11.2406L26.25 11.25H23.4356L21.1894 14.25C20.1956 15.5738 18.1819 15.0375 17.8575 13.545L17.8256 13.3369L17.8125 13.125V11.1281L17.6663 11.0906C16.992 10.887 16.3887 10.4977 15.9254 9.96709C15.4621 9.43652 15.1577 8.78621 15.0469 8.09062L15.0094 7.77938L15 7.5V3.75C14.9997 2.80392 15.357 1.89269 16.0003 1.19897C16.6436 0.505257 17.5253 0.0803312 18.4688 0.00937521L18.75 0H26.25Z" fill="white"/>
</svg>
