<svg width="27" height="30" viewBox="0 0 27 30" fill="none" xmlns="http://www.w3.org/2000/svg">
<path d="M0 28.05V11.1011C0 10.6019 0.110571 10.1293 0.331714 9.68346C0.552857 9.23757 0.857571 8.87033 1.24586 8.58174L11.6312 0.629835C12.1751 0.209946 12.7961 0 13.4942 0C14.1924 0 14.8172 0.209946 15.3688 0.629835L25.7541 8.57979C26.1437 8.86838 26.4484 9.23627 26.6683 9.68346C26.8894 10.1293 27 10.6019 27 11.1011V28.05C27 28.5726 26.8078 29.0283 26.4234 29.417C26.0389 29.8057 25.5883 30 25.0714 30H18.5451C18.1029 30 17.7326 29.8492 17.4343 29.5476C17.136 29.2447 16.9869 28.8703 16.9869 28.4244V19.1251C16.9869 18.6792 16.8377 18.3055 16.5394 18.0039C16.2399 17.701 15.8696 17.5496 15.4286 17.5496H11.5714C11.1304 17.5496 10.7608 17.701 10.4625 18.0039C10.1629 18.3055 10.0131 18.6792 10.0131 19.1251V28.4264C10.0131 28.8723 9.864 29.246 9.56571 29.5476C9.26743 29.8492 8.89779 30 8.45679 30H1.92857C1.41171 30 0.961071 29.8057 0.576642 29.417C0.192214 29.0283 0 28.5726 0 28.05Z" fill="white"/>
</svg>
