<svg width="30" height="30" viewBox="0 0 30 30" fill="none" xmlns="http://www.w3.org/2000/svg">
<path d="M15.9375 18.75C16.6834 18.75 17.3988 19.0463 17.9262 19.5738C18.4537 20.1012 18.75 20.8166 18.75 21.5625V22.5C18.75 26.1956 15.2625 30 9.375 30C3.4875 30 0 26.1956 0 22.5V21.5625C0 20.8166 0.296316 20.1012 0.823762 19.5738C1.35121 19.0463 2.06658 18.75 2.8125 18.75H15.9375ZM15.9375 20.625H2.8125C2.56386 20.625 2.3254 20.7238 2.14959 20.8996C1.97377 21.0754 1.875 21.3139 1.875 21.5625V22.5C1.875 25.1962 4.56 28.125 9.375 28.125C14.19 28.125 16.875 25.1962 16.875 22.5V21.5625C16.875 21.3139 16.7762 21.0754 16.6004 20.8996C16.4246 20.7238 16.1861 20.625 15.9375 20.625ZM9.375 6.5625C10.7425 6.5625 12.054 7.10575 13.021 8.07273C13.988 9.03971 14.5312 10.3512 14.5312 11.7188C14.5312 13.0863 13.988 14.3978 13.021 15.3648C12.054 16.3318 10.7425 16.875 9.375 16.875C8.00748 16.875 6.69596 16.3318 5.72898 15.3648C4.762 14.3978 4.21875 13.0863 4.21875 11.7188C4.21875 10.3512 4.762 9.03971 5.72898 8.07273C6.69596 7.10575 8.00748 6.5625 9.375 6.5625ZM26.25 0C27.1958 0.00017358 28.1065 0.357697 28.7998 1.00094C29.4932 1.64419 29.9178 2.52566 29.9887 3.46875L30 3.75V7.5C30.0003 8.44608 29.643 9.35731 28.9997 10.051C28.3564 10.7447 27.4747 11.1697 26.5312 11.2406L26.25 11.25H23.4356L21.1894 14.25C20.1956 15.5738 18.1819 15.0375 17.8575 13.545L17.8256 13.3369L17.8125 13.125V11.1281L17.6663 11.0906C16.992 10.887 16.3887 10.4977 15.9254 9.96709C15.4621 9.43652 15.1577 8.78621 15.0469 8.09062L15.0094 7.77938L15 7.5V3.75C14.9997 2.80392 15.357 1.89269 16.0003 1.19897C16.6436 0.505257 17.5253 0.0803312 18.4688 0.00937521L18.75 0H26.25ZM9.375 8.4375C8.9441 8.4375 8.51742 8.52237 8.11932 8.68727C7.72122 8.85217 7.3595 9.09386 7.05481 9.39856C6.75011 9.70325 6.50842 10.065 6.34352 10.4631C6.17862 10.8612 6.09375 11.2879 6.09375 11.7188C6.09375 12.1496 6.17862 12.5763 6.34352 12.9744C6.50842 13.3725 6.75011 13.7343 7.05481 14.0389C7.3595 14.3436 7.72122 14.5853 8.11932 14.7502C8.51742 14.9151 8.9441 15 9.375 15C10.2452 15 11.0798 14.6543 11.6952 14.0389C12.3105 13.4236 12.6562 12.589 12.6562 11.7188C12.6562 10.8485 12.3105 10.0139 11.6952 9.39856C11.0798 8.7832 10.2452 8.4375 9.375 8.4375ZM26.25 1.875H18.75C18.2908 1.87506 17.8475 2.04367 17.5043 2.34884C17.1611 2.65401 16.9419 3.07453 16.8881 3.53062L16.875 3.75V7.5C16.8751 7.95925 17.0437 8.40251 17.3488 8.7457C17.654 9.08889 18.0745 9.30814 18.5306 9.36188L18.75 9.375H19.6875V13.125L22.5 9.375H26.25C26.7092 9.37494 27.1525 9.20633 27.4957 8.90116C27.8389 8.59599 28.0581 8.17547 28.1119 7.71938L28.125 7.5V3.75C28.1249 3.29075 27.9563 2.84749 27.6512 2.5043C27.346 2.16111 26.9255 1.94186 26.4694 1.88812L26.25 1.875Z" fill="#212529"/>
</svg>
