<svg width="27" height="30" viewBox="0 0 27 30" fill="none" xmlns="http://www.w3.org/2000/svg">
<path d="M1.92857 28.05H9.04886V18.1501C9.04886 17.7043 9.19864 17.3305 9.49821 17.0289C9.7965 16.726 10.1661 16.5746 10.6071 16.5746H16.3929C16.8339 16.5746 17.2041 16.726 17.5037 17.0289C17.802 17.3305 17.9511 17.7043 17.9511 18.1501V28.05H25.0714V11.1011C25.0714 10.9009 25.0284 10.7189 24.9422 10.5551C24.8561 10.3913 24.7384 10.2483 24.5893 10.1261L14.2059 2.2132C14.0079 2.039 13.7726 1.9519 13.5 1.9519C13.2274 1.9519 12.9928 2.039 12.7961 2.2132L2.41071 10.1261C2.26286 10.2509 2.14521 10.3939 2.05779 10.5551C1.97036 10.7163 1.92729 10.8983 1.92857 11.1011V28.05ZM0 28.05V11.1011C0 10.6019 0.110571 10.1293 0.331714 9.68346C0.552857 9.23757 0.857571 8.87033 1.24586 8.58174L11.6312 0.629835C12.1751 0.209946 12.7961 0 13.4942 0C14.1924 0 14.8172 0.209946 15.3688 0.629835L25.7541 8.57979C26.1437 8.86838 26.4484 9.23627 26.6683 9.68346C26.8894 10.1293 27 10.6019 27 11.1011V28.05C27 28.5726 26.8078 29.0283 26.4234 29.417C26.0389 29.8057 25.5883 30 25.0714 30H17.5809C17.1386 30 16.7683 29.8492 16.47 29.5476C16.1717 29.2447 16.0226 28.8703 16.0226 28.4244V18.5265H10.9774V28.4244C10.9774 28.8716 10.8283 29.246 10.53 29.5476C10.2317 29.8492 9.86207 30 9.42107 30H1.92857C1.41171 30 0.961071 29.8057 0.576642 29.417C0.192214 29.0283 0 28.5726 0 28.05Z" fill="#212529"/>
</svg>
