<svg width="30" height="30" viewBox="0 0 30 30" fill="none" xmlns="http://www.w3.org/2000/svg">
<path d="M7.5 13.125C7.00272 13.125 6.52581 13.3225 6.17417 13.6742C5.82254 14.0258 5.625 14.5027 5.625 15C5.625 15.4973 5.82254 15.9742 6.17417 16.3258C6.52581 16.6775 7.00272 16.875 7.5 16.875C7.99728 16.875 8.47419 16.6775 8.82583 16.3258C9.17746 15.9742 9.375 15.4973 9.375 15C9.375 14.5027 9.17746 14.0258 8.82583 13.6742C8.47419 13.3225 7.99728 13.125 7.5 13.125ZM13.125 15C13.125 14.5027 13.3225 14.0258 13.6742 13.6742C14.0258 13.3225 14.5027 13.125 15 13.125C15.4973 13.125 15.9742 13.3225 16.3258 13.6742C16.6775 14.0258 16.875 14.5027 16.875 15C16.875 15.4973 16.6775 15.9742 16.3258 16.3258C15.9742 16.6775 15.4973 16.875 15 16.875C14.5027 16.875 14.0258 16.6775 13.6742 16.3258C13.3225 15.9742 13.125 15.4973 13.125 15ZM20.625 15C20.625 14.5027 20.8225 14.0258 21.1742 13.6742C21.5258 13.3225 22.0027 13.125 22.5 13.125C22.9973 13.125 23.4742 13.3225 23.8258 13.6742C24.1775 14.0258 24.375 14.5027 24.375 15C24.375 15.4973 24.1775 15.9742 23.8258 16.3258C23.4742 16.6775 22.9973 16.875 22.5 16.875C22.0027 16.875 21.5258 16.6775 21.1742 16.3258C20.8225 15.9742 20.625 15.4973 20.625 15Z" fill="#3629B7"/>
</svg>
