<svg width="30" height="30" viewBox="0 0 30 30" fill="none" xmlns="http://www.w3.org/2000/svg">
<path fill-rule="evenodd" clip-rule="evenodd" d="M1.875 8.775C1.875 5.67454 4.31043 3.125 7.3625 3.125H22.6388C25.6883 3.125 28.125 5.67454 28.125 8.775C28.125 11.6065 26.0962 13.9725 23.4254 14.3683L23.2421 13.1318C25.2788 12.83 26.875 11.0085 26.875 8.775C26.875 6.32546 24.9592 4.375 22.6388 4.375H7.3625C5.03957 4.375 3.125 6.32546 3.125 8.775C3.125 11.0087 4.72004 12.83 6.75781 13.1317L6.57469 14.3683C3.90246 13.9725 1.875 11.6063 1.875 8.775Z" fill="#CACACA"/>
<path fill-rule="evenodd" clip-rule="evenodd" d="M15 6.875C15.3452 6.875 15.625 7.15482 15.625 7.5V14.5607L17.0255 12.927C17.2501 12.6649 17.6447 12.6346 17.9068 12.8592C18.1688 13.0839 18.1992 13.4785 17.9745 13.7405L15.4745 16.6568C15.3558 16.7953 15.1824 16.875 15 16.875C14.8176 16.875 14.6442 16.7953 14.5255 16.6568L12.0255 13.7405C11.8008 13.4785 11.8312 13.0839 12.0932 12.8592C12.3553 12.6346 12.7498 12.6649 12.9745 12.927L14.375 14.5607V7.5C14.375 7.15482 14.6548 6.875 15 6.875Z" fill="#CACACA"/>
<path fill-rule="evenodd" clip-rule="evenodd" d="M8.59021 8.21098C7.97903 8.2932 7.6553 8.44358 7.42444 8.67444C7.19358 8.9053 7.0432 9.22903 6.96098 9.84021C6.87633 10.4695 6.875 11.3036 6.875 12.5V20C6.875 21.1964 6.87633 22.0305 6.96098 22.6598C7.0432 23.271 7.19358 23.5947 7.42444 23.8256C7.6553 24.0564 7.97903 24.2068 8.59021 24.289C9.21947 24.3737 10.0536 24.375 11.25 24.375H18.75C19.9464 24.375 20.7805 24.3737 21.4098 24.289C22.021 24.2068 22.3447 24.0564 22.5756 23.8256C22.8064 23.5947 22.9568 23.271 23.039 22.6598C23.1237 22.0305 23.125 21.1964 23.125 20V12.5C23.125 11.3036 23.1237 10.4695 23.039 9.84021C22.9568 9.22903 22.8064 8.9053 22.5756 8.67444C22.3447 8.44358 22.021 8.2932 21.4098 8.21098C20.7805 8.12633 19.9464 8.125 18.75 8.125H11.25C10.0536 8.125 9.21947 8.12633 8.59021 8.21098ZM11.2042 6.875H18.7958C19.9356 6.87498 20.8541 6.87497 21.5765 6.97214C22.3265 7.07305 22.9578 7.28892 23.4594 7.79056C23.9611 8.2922 24.177 8.92347 24.2779 9.67355C24.375 10.3959 24.375 11.3144 24.375 12.4542V20.0458C24.375 21.1856 24.375 22.1041 24.2779 22.8265C24.177 23.5765 23.9611 24.2078 23.4594 24.7094C22.9578 25.2111 22.3265 25.427 21.5765 25.5279C20.8541 25.625 19.9356 25.625 18.7958 25.625H11.2042C10.0644 25.625 9.14588 25.625 8.42355 25.5279C7.67347 25.427 7.0422 25.2111 6.54056 24.7094C6.03892 24.2078 5.82305 23.5765 5.72214 22.8265C5.62497 22.1041 5.62498 21.1856 5.625 20.0458V12.4542C5.62498 11.3144 5.62497 10.3959 5.72214 9.67355C5.82305 8.92347 6.03892 8.2922 6.54056 7.79056C7.0422 7.28892 7.67347 7.07305 8.42355 6.97214C9.14589 6.87497 10.0644 6.87498 11.2042 6.875Z" fill="#CACACA"/>
<path fill-rule="evenodd" clip-rule="evenodd" d="M5.625 21.25C5.625 20.9048 5.90482 20.625 6.25 20.625H23.75C24.0952 20.625 24.375 20.9048 24.375 21.25C24.375 21.5952 24.0952 21.875 23.75 21.875H6.25C5.90482 21.875 5.625 21.5952 5.625 21.25Z" fill="#CACACA"/>
</svg>
