<svg width="40" height="40" viewBox="0 0 40 40" fill="none" xmlns="http://www.w3.org/2000/svg">
<path d="M7.5 5C7.5 3.67392 8.02678 2.40215 8.96447 1.46447C9.90215 0.526784 11.1739 0 12.5 0L27.5 0C28.8261 0 30.0979 0.526784 31.0355 1.46447C31.9732 2.40215 32.5 3.67392 32.5 5V35C32.5 36.3261 31.9732 37.5979 31.0355 38.5355C30.0979 39.4732 28.8261 40 27.5 40H12.5C11.1739 40 9.90215 39.4732 8.96447 38.5355C8.02678 37.5979 7.5 36.3261 7.5 35V5ZM22.5 32.5C22.5 31.837 22.2366 31.2011 21.7678 30.7322C21.2989 30.2634 20.663 30 20 30C19.337 30 18.7011 30.2634 18.2322 30.7322C17.7634 31.2011 17.5 31.837 17.5 32.5C17.5 33.163 17.7634 33.7989 18.2322 34.2678C18.7011 34.7366 19.337 35 20 35C20.663 35 21.2989 34.7366 21.7678 34.2678C22.2366 33.7989 22.5 33.163 22.5 32.5Z" fill="#A8A3D7"/>
</svg>
