<svg width="23" height="30" viewBox="0 0 23 30" fill="none" xmlns="http://www.w3.org/2000/svg">
<path d="M19.3409 9.64252H12.5455V19.3525C12.5455 19.6367 12.4353 19.9092 12.2392 20.1101C12.0432 20.3111 11.7773 20.4239 11.5 20.4239C11.2227 20.4239 10.9568 20.3111 10.7608 20.1101C10.5647 19.9092 10.4545 19.6367 10.4545 19.3525V9.64252H3.65909C2.68896 9.64358 1.75886 10.039 1.07287 10.7421C0.386881 11.4451 0.00103776 12.3983 0 13.3926V26.2499C0.00103776 27.2442 0.386881 28.1974 1.07287 28.9005C1.75886 29.6035 2.68896 29.9989 3.65909 30H19.3409C20.311 29.9989 21.2411 29.6035 21.9271 28.9005C22.6131 28.1974 22.999 27.2442 23 26.2499V13.3926C22.999 12.3983 22.6131 11.4451 21.9271 10.7421C21.2411 10.039 20.311 9.64358 19.3409 9.64252ZM12.5455 3.65782L15.9883 7.18556C16.1859 7.37801 16.4491 7.48372 16.7217 7.48014C16.9943 7.47657 17.2548 7.36399 17.4476 7.16641C17.6404 6.96883 17.7502 6.70189 17.7537 6.4225C17.7572 6.14311 17.6541 5.87337 17.4663 5.6708L12.239 0.313571C12.043 0.112788 11.7772 0 11.5 0C11.2228 0 10.957 0.112788 10.761 0.313571L5.53372 5.6708C5.34594 5.87337 5.24279 6.14311 5.24628 6.4225C5.24977 6.70189 5.35962 6.96883 5.55241 7.16641C5.74519 7.36399 6.00566 7.47657 6.27827 7.48014C6.55088 7.48372 6.81408 7.37801 7.01173 7.18556L10.4545 3.65782V9.64252H12.5455V3.65782Z" fill="#212529"/>
</svg>
