<svg width="10" height="10" viewBox="0 0 10 10" fill="none" xmlns="http://www.w3.org/2000/svg">
<path d="M3.57653 1.70401C4.21002 0.568004 4.52651 0 5 0C5.47349 0 5.78998 0.568004 6.42347 1.70401L6.58746 1.99801C6.76746 2.32101 6.85746 2.48252 6.99745 2.58902C7.13745 2.69552 7.31245 2.73502 7.66244 2.81402L7.98043 2.88602C9.2104 3.16452 9.82489 3.30352 9.97138 3.77402C10.1174 4.24403 9.69839 4.73453 8.85991 5.71504L8.64291 5.96854C8.40492 6.24704 8.28542 6.38654 8.23192 6.55854C8.17842 6.73104 8.19642 6.91704 8.23242 7.28855L8.26542 7.62705C8.39192 8.93556 8.45542 9.58956 8.07243 9.88006C7.68944 10.1706 7.11345 9.90556 5.96248 9.37556L5.66398 9.23856C5.33699 9.08756 5.1735 9.01256 5 9.01256C4.8265 9.01256 4.66301 9.08756 4.33602 9.23856L4.03802 9.37556C2.88655 9.90556 2.31056 10.1706 1.92807 9.88056C1.54458 9.58956 1.60808 8.93556 1.73458 7.62705L1.76758 7.28905C1.80358 6.91704 1.82157 6.73104 1.76758 6.55904C1.71458 6.38654 1.59508 6.24704 1.35709 5.96904L1.14009 5.71504C0.301611 4.73503 -0.11738 4.24453 0.0286168 3.77402C0.174613 3.30352 0.790099 3.16402 2.02007 2.88602L2.33806 2.81402C2.68755 2.73502 2.86205 2.69552 3.00255 2.58902C3.14304 2.48252 3.23254 2.32101 3.41254 1.99801L3.57653 1.70401Z" fill="#54595F"/>
</svg>
