<svg width="40" height="40" viewBox="0 0 40 40" fill="none" xmlns="http://www.w3.org/2000/svg">
<path d="M17.3814 25.4314L17.3729 25.4114C17.2004 25.3707 17.0289 25.3259 16.8586 25.2772L16.8457 25.2729C15.2161 24.8044 13.7112 23.9792 12.44 22.8572C11.042 21.6239 9.96688 20.0674 9.30843 18.3233C8.64999 16.5792 8.4282 14.7005 8.66239 12.851C8.89658 11.0015 9.57966 9.23744 10.652 7.71253C11.7244 6.18761 13.1536 4.94818 14.8149 4.10231C16.4762 3.25644 18.3192 2.82981 20.1832 2.85962C22.0472 2.88942 23.8756 3.37477 25.509 4.27333C27.1424 5.17189 28.5312 6.45638 29.5542 8.01481C30.5773 9.57324 31.2036 11.3583 31.3786 13.2143C31.4343 13.8043 30.95 14.2857 30.3571 14.2857C29.7657 14.2857 29.2929 13.8043 29.2243 13.2157C29.0354 11.5919 28.4212 10.0466 27.4437 8.73623C26.4662 7.42585 25.1601 6.39675 23.6574 5.75298C22.1546 5.10921 20.5086 4.87357 18.8856 5.0699C17.2626 5.26623 15.7202 5.88756 14.4143 6.87108C13.1085 7.8546 12.0854 9.16545 11.4486 10.6711C10.8117 12.1768 10.5837 13.8239 10.7875 15.446C10.9912 17.068 11.6197 18.6075 12.6092 19.9089C13.5987 21.2102 14.9143 22.2272 16.4229 22.8572L16.48 22.8814C16.7657 22.9986 17.059 23.1019 17.36 23.1914C17.6128 22.5804 18.0698 22.0761 18.6529 21.7643C19.2361 21.4526 19.9093 21.3527 20.5578 21.4818C21.2063 21.6109 21.79 21.961 22.2093 22.4723C22.6286 22.9836 22.8575 23.6245 22.8571 24.2857C22.8578 24.9424 22.6322 25.5792 22.2184 26.089C21.8046 26.5988 21.2278 26.9506 20.5851 27.0851C19.9424 27.2195 19.273 27.1285 18.6895 26.8274C18.106 26.5262 17.6441 26.0332 17.3814 25.4314ZM15.9729 27.2486C13.4351 26.4593 11.1848 24.9423 9.50142 22.8857C8.45816 23.0079 7.49609 23.509 6.79794 24.2938C6.09978 25.0786 5.71415 26.0925 5.71428 27.1429V28.1643C5.71428 33.4757 11.7286 37.1429 20 37.1429C28.2714 37.1429 34.2857 33.2743 34.2857 28.1643V27.1429C34.2857 26.0062 33.8342 24.9161 33.0305 24.1124C32.2267 23.3087 31.1366 22.8572 30 22.8572H24.7929C25.1298 23.9858 25.0576 25.1971 24.5888 26.2777C24.12 27.3582 23.2848 28.2386 22.2304 28.7635C21.176 29.2885 19.9701 29.4244 18.8253 29.1472C17.6805 28.8701 16.6704 28.1977 15.9729 27.2486ZM27.1429 14.2857C27.1429 12.1257 26.1857 10.19 24.67 8.88001C23.9095 8.22395 23.0192 7.73566 22.0572 7.44701C21.0952 7.15835 20.0831 7.07582 19.087 7.2048C18.091 7.33378 17.1333 7.67137 16.2766 8.19554C15.4198 8.71971 14.6833 9.41867 14.1149 10.2468C13.5466 11.0749 13.1593 12.0136 12.9784 13.0015C12.7974 13.9895 12.8268 15.0045 13.0647 15.9803C13.3026 16.9561 13.7436 17.8707 14.3589 18.6645C14.9742 19.4584 15.75 20.1135 16.6357 20.5872C17.5561 19.7498 18.7557 19.2858 20 19.2857C21.2448 19.2854 22.4449 19.7495 23.3657 20.5872C24.507 19.9774 25.4613 19.0691 26.1265 17.9593C26.7918 16.8494 27.1431 15.5797 27.1429 14.2857Z" fill="#3629B7"/>
</svg>
