<svg width="40" height="40" viewBox="0 0 40 40" fill="none" xmlns="http://www.w3.org/2000/svg">
<path d="M30 18.3333H10V9.99998H30M27.5 28.3333C26.837 28.3333 26.2011 28.0699 25.7323 27.6011C25.2634 27.1322 25 26.4964 25 25.8333C25 25.1703 25.2634 24.5344 25.7323 24.0655C26.2011 23.5967 26.837 23.3333 27.5 23.3333C28.1631 23.3333 28.7989 23.5967 29.2678 24.0655C29.7366 24.5344 30 25.1703 30 25.8333C30 26.4964 29.7366 27.1322 29.2678 27.6011C28.7989 28.0699 28.1631 28.3333 27.5 28.3333ZM12.5 28.3333C11.837 28.3333 11.2011 28.0699 10.7323 27.6011C10.2634 27.1322 10 26.4964 10 25.8333C10 25.1703 10.2634 24.5344 10.7323 24.0655C11.2011 23.5967 11.837 23.3333 12.5 23.3333C13.1631 23.3333 13.7989 23.5967 14.2678 24.0655C14.7366 24.5344 15 25.1703 15 25.8333C15 26.4964 14.7366 27.1322 14.2678 27.6011C13.7989 28.0699 13.1631 28.3333 12.5 28.3333ZM6.66669 26.6666C6.66669 28.1333 7.31669 29.45 8.33335 30.3666V33.3333C8.33335 33.7753 8.50895 34.1993 8.82151 34.5118C9.13407 34.8244 9.55799 35 10 35H11.6667C12.1087 35 12.5326 34.8244 12.8452 34.5118C13.1578 34.1993 13.3334 33.7753 13.3334 33.3333V31.6666H26.6667V33.3333C26.6667 33.7753 26.8423 34.1993 27.1548 34.5118C27.4674 34.8244 27.8913 35 28.3334 35H30C30.442 35 30.866 34.8244 31.1785 34.5118C31.4911 34.1993 31.6667 33.7753 31.6667 33.3333V30.3666C32.6834 29.45 33.3334 28.1333 33.3334 26.6666V9.99998C33.3334 4.16665 27.3667 3.33331 20 3.33331C12.6334 3.33331 6.66669 4.16665 6.66669 9.99998V26.6666Z" fill="#A8A3D7"/>
</svg>
