<svg width="30" height="30" viewBox="0 0 30 30" fill="none" xmlns="http://www.w3.org/2000/svg">
<path d="M17.1175 6.875H17.1425C17.3083 6.875 17.4672 6.94085 17.5844 7.05806C17.7017 7.17527 17.7675 7.33424 17.7675 7.5C17.7675 7.66576 17.7017 7.82473 17.5844 7.94194C17.4672 8.05915 17.3083 8.125 17.1425 8.125C15.5337 8.125 14.29 8.125 13.2962 8.205C12.3012 8.28375 11.6262 8.43875 11.1287 8.705C10.1577 9.23225 9.37776 10.0524 8.9 11.0488C8.6375 11.59 8.49 12.2438 8.415 13.2075C8.34 14.1788 8.34 15.41 8.34 17.1V17.9913L10.2725 16.0575C10.3899 15.9403 10.549 15.8745 10.7148 15.8747C10.8807 15.8748 11.0397 15.9408 11.1569 16.0581C11.2741 16.1755 11.3398 16.3346 11.3397 16.5004C11.3396 16.6663 11.2736 16.8253 11.1562 16.9425L8.15625 19.9425C8.09629 20.0023 8.02481 20.0492 7.94615 20.0805C7.86749 20.1118 7.78329 20.1268 7.69866 20.1246C7.61403 20.1224 7.53073 20.103 7.45382 20.0676C7.37692 20.0322 7.308 19.9816 7.25125 19.9188L4.53625 16.9188C4.42968 16.7951 4.37572 16.6346 4.38592 16.4717C4.39612 16.3088 4.46967 16.1563 4.59084 16.0469C4.712 15.9375 4.87117 15.8798 5.0343 15.8862C5.19743 15.8927 5.35156 15.9627 5.46375 16.0813L7.08875 17.8775V17.0725C7.08875 15.4163 7.08875 14.135 7.16875 13.11C7.25 12.0738 7.415 11.245 7.775 10.5038C8.36829 9.27004 9.33595 8.25513 10.54 7.60375C11.265 7.215 12.1437 7.0425 13.1975 6.95875C14.2475 6.875 15.5387 6.875 17.1175 6.875ZM22.3012 9.875C22.3859 9.87726 22.4693 9.89671 22.5462 9.93217C22.6231 9.96762 22.692 10.0183 22.7487 10.0813L25.4637 13.0813C25.5703 13.2049 25.6243 13.3654 25.6141 13.5283C25.6039 13.6913 25.5303 13.8437 25.4092 13.9531C25.288 14.0625 25.1288 14.1202 24.9657 14.1138C24.8026 14.1074 24.6484 14.0374 24.5362 13.9188L22.9112 12.1225V12.9275C22.9112 14.585 22.9112 15.865 22.8312 16.89C22.75 17.9263 22.585 18.755 22.225 19.4963C21.6317 20.73 20.6641 21.7449 19.46 22.3963C18.735 22.785 17.8562 22.9575 16.8025 23.0413C15.7537 23.125 14.4612 23.125 12.8825 23.125H12.8575C12.6917 23.125 12.5328 23.0592 12.4156 22.9419C12.2983 22.8247 12.2325 22.6658 12.2325 22.5C12.2325 22.3342 12.2983 22.1753 12.4156 22.0581C12.5328 21.9409 12.6917 21.875 12.8575 21.875C14.4662 21.875 15.71 21.875 16.7037 21.795C17.6987 21.7163 18.3737 21.5613 18.8712 21.295C19.8428 20.768 20.6232 19.9478 21.1012 18.9513C21.3637 18.4088 21.51 17.7563 21.585 16.7925C21.66 15.8213 21.66 14.59 21.66 12.9V12.0088L19.7275 13.9425C19.6101 14.0597 19.451 14.1255 19.2852 14.1254C19.1193 14.1252 18.9603 14.0592 18.8431 13.9419C18.7259 13.8245 18.6602 13.6654 18.6603 13.4996C18.6604 13.3337 18.7264 13.1747 18.8437 13.0575L21.8438 10.0575C21.9037 9.99768 21.9751 9.95065 22.0538 9.91928C22.1324 9.88791 22.2166 9.87285 22.3012 9.875Z" fill="#CACACA"/>
</svg>
