<svg width="40" height="40" viewBox="0 0 40 40" fill="none" xmlns="http://www.w3.org/2000/svg">
<path fill-rule="evenodd" clip-rule="evenodd" d="M20 3.33331C10.795 3.33331 3.33334 10.795 3.33334 20C3.33334 29.205 10.795 36.6666 20 36.6666C29.205 36.6666 36.6667 29.205 36.6667 20C36.6667 10.795 29.205 3.33331 20 3.33331ZM14.1667 15.8333C14.1667 15.0673 14.3176 14.3087 14.6107 13.601C14.9039 12.8933 15.3335 12.2502 15.8752 11.7085C16.4169 11.1668 17.0599 10.7372 17.7677 10.444C18.4754 10.1509 19.234 9.99998 20 9.99998C20.766 9.99998 21.5246 10.1509 22.2323 10.444C22.9401 10.7372 23.5831 11.1668 24.1248 11.7085C24.6665 12.2502 25.0961 12.8933 25.3893 13.601C25.6825 14.3087 25.8333 15.0673 25.8333 15.8333C25.8333 17.3804 25.2188 18.8641 24.1248 19.9581C23.0308 21.0521 21.5471 21.6666 20 21.6666C18.4529 21.6666 16.9692 21.0521 15.8752 19.9581C14.7813 18.8641 14.1667 17.3804 14.1667 15.8333ZM30.43 28.3066C29.182 29.8756 27.5958 31.1425 25.7899 32.0128C23.9839 32.8832 22.0048 33.3346 20 33.3333C17.9952 33.3346 16.0161 32.8832 14.2101 32.0128C12.4042 31.1425 10.818 29.8756 9.57 28.3066C12.2717 26.3683 15.9583 25 20 25C24.0417 25 27.7283 26.3683 30.43 28.3066Z" fill="#3629B7"/>
</svg>
