<svg width="31" height="10" viewBox="0 0 31 10" fill="none" xmlns="http://www.w3.org/2000/svg">
<g clip-path="url(#clip0_1068_519)">
<path d="M16.0324 3.18406C16.0148 4.57153 17.2752 5.34574 18.2247 5.80611C19.2003 6.27839 19.5279 6.58129 19.5241 7.0037C19.5168 7.65008 18.7459 7.93538 18.0246 7.94647C16.766 7.96586 16.0343 7.60839 15.4525 7.33803L14.9992 9.44876C15.5828 9.71635 16.6636 9.94972 17.7843 9.95996C20.4151 9.95996 22.1362 8.66791 22.1455 6.66466C22.1558 4.12225 18.611 3.98153 18.6352 2.84514C18.6436 2.50056 18.9741 2.13285 19.6982 2.03936C20.0566 1.99213 21.0461 1.95599 22.1679 2.46996L22.6082 0.427793C22.0049 0.209238 21.2296 -3.91006e-05 20.2642 -3.91006e-05C17.7881 -3.91006e-05 16.0465 1.3096 16.0324 3.18406ZM26.839 0.175864C26.3586 0.175864 25.9538 0.454659 25.7731 0.88249L22.0152 9.80996H24.644L25.1672 8.37153H28.3795L28.683 9.80996H31L28.9781 0.175864H26.839ZM27.2067 2.77839L27.9654 6.39611H25.8877L27.2067 2.77839ZM12.8451 0.175984L10.773 9.80984H13.2781L15.3492 0.175744L12.8451 0.175984ZM9.13931 0.175984L6.53192 6.73321L5.47719 1.15767C5.35343 0.535262 4.8647 0.175864 4.32196 0.175864H0.0596992L0 0.455624C0.875023 0.644539 1.8692 0.949238 2.47152 1.27526C2.84013 1.47442 2.94524 1.64851 3.06634 2.12177L5.06402 9.80996H7.71125L11.7698 0.175864L9.13931 0.175984Z" fill="url(#paint0_linear_1068_519)"/>
</g>
<defs>
<linearGradient id="paint0_linear_1068_519" x1="1425.19" y1="29.9397" x2="1453.88" y2="-992.975" gradientUnits="userSpaceOnUse">
<stop stop-color="#222357"/>
<stop offset="1" stop-color="#254AA5"/>
</linearGradient>
<clipPath id="clip0_1068_519">
<rect width="31" height="10" fill="white"/>
</clipPath>
</defs>
</svg>
